<svg width="573" height="280" viewBox="0 0 573 280" fill="none" xmlns="http://www.w3.org/2000/svg">
<mask id="path-1-outside-1_4_16" maskUnits="userSpaceOnUse" x="271" y="75" width="289" height="143" fill="black">
<rect fill="white" x="271" y="75" width="289" height="143"/>
<path d="M274.045 126V79.4545H292.409C295.939 79.4545 298.947 80.1288 301.432 81.4773C303.917 82.8106 305.811 84.6667 307.114 87.0455C308.432 89.4091 309.091 92.1364 309.091 95.2273C309.091 98.3182 308.424 101.045 307.091 103.409C305.758 105.773 303.826 107.614 301.295 108.932C298.78 110.25 295.735 110.909 292.159 110.909H280.455V103.023H290.568C292.462 103.023 294.023 102.697 295.25 102.045C296.492 101.379 297.417 100.462 298.023 99.2955C298.644 98.1136 298.955 96.7576 298.955 95.2273C298.955 93.6818 298.644 92.3333 298.023 91.1818C297.417 90.0151 296.492 89.1136 295.25 88.4773C294.008 87.8258 292.432 87.5 290.523 87.5H283.886V126H274.045ZM330.648 126.682C327.057 126.682 323.966 125.955 321.375 124.5C318.799 123.03 316.814 120.955 315.42 118.273C314.027 115.576 313.33 112.386 313.33 108.705C313.33 105.114 314.027 101.962 315.42 99.25C316.814 96.5379 318.777 94.4242 321.307 92.9091C323.852 91.3939 326.837 90.6364 330.261 90.6364C332.564 90.6364 334.708 91.0076 336.693 91.75C338.693 92.4773 340.436 93.5758 341.92 95.0455C343.42 96.5152 344.587 98.3636 345.42 100.591C346.254 102.803 346.67 105.394 346.67 108.364V111.023H317.193V105.023H337.557C337.557 103.629 337.254 102.394 336.648 101.318C336.042 100.242 335.201 99.4015 334.125 98.7955C333.064 98.1742 331.83 97.8636 330.42 97.8636C328.951 97.8636 327.648 98.2045 326.511 98.8864C325.39 99.553 324.511 100.455 323.875 101.591C323.239 102.712 322.913 103.962 322.898 105.341V111.045C322.898 112.773 323.216 114.265 323.852 115.523C324.504 116.78 325.42 117.75 326.602 118.432C327.784 119.114 329.186 119.455 330.807 119.455C331.883 119.455 332.867 119.303 333.761 119C334.655 118.697 335.42 118.242 336.057 117.636C336.693 117.03 337.178 116.288 337.511 115.409L346.466 116C346.011 118.152 345.08 120.03 343.67 121.636C342.277 123.227 340.473 124.47 338.261 125.364C336.064 126.242 333.527 126.682 330.648 126.682ZM362.943 126.659C360.716 126.659 358.731 126.273 356.989 125.5C355.246 124.712 353.867 123.553 352.852 122.023C351.852 120.477 351.352 118.553 351.352 116.25C351.352 114.311 351.708 112.682 352.42 111.364C353.133 110.045 354.102 108.985 355.33 108.182C356.557 107.379 357.951 106.773 359.511 106.364C361.087 105.955 362.739 105.667 364.466 105.5C366.496 105.288 368.133 105.091 369.375 104.909C370.617 104.712 371.519 104.424 372.08 104.045C372.64 103.667 372.92 103.106 372.92 102.364V102.227C372.92 100.788 372.466 99.6742 371.557 98.8864C370.663 98.0985 369.39 97.7045 367.739 97.7045C365.996 97.7045 364.61 98.0909 363.58 98.8636C362.549 99.6212 361.867 100.576 361.534 101.727L352.58 101C353.034 98.8788 353.928 97.0455 355.261 95.5C356.595 93.9394 358.314 92.7424 360.42 91.9091C362.542 91.0606 364.996 90.6364 367.784 90.6364C369.723 90.6364 371.58 90.8636 373.352 91.3182C375.14 91.7727 376.723 92.4773 378.102 93.4318C379.496 94.3864 380.595 95.6136 381.398 97.1136C382.201 98.5985 382.602 100.379 382.602 102.455V126H373.42V121.159H373.148C372.587 122.25 371.837 123.212 370.898 124.045C369.958 124.864 368.83 125.508 367.511 125.977C366.193 126.432 364.67 126.659 362.943 126.659ZM365.716 119.977C367.14 119.977 368.398 119.697 369.489 119.136C370.58 118.561 371.436 117.788 372.057 116.818C372.678 115.848 372.989 114.75 372.989 113.523V109.818C372.686 110.015 372.269 110.197 371.739 110.364C371.223 110.515 370.64 110.659 369.989 110.795C369.337 110.917 368.686 111.03 368.034 111.136C367.383 111.227 366.792 111.311 366.261 111.386C365.125 111.553 364.133 111.818 363.284 112.182C362.436 112.545 361.777 113.038 361.307 113.659C360.837 114.265 360.602 115.023 360.602 115.932C360.602 117.25 361.08 118.258 362.034 118.955C363.004 119.636 364.231 119.977 365.716 119.977ZM390.114 126V91.0909H399.5V97.1818H399.864C400.5 95.0152 401.568 93.3788 403.068 92.2727C404.568 91.1515 406.295 90.5909 408.25 90.5909C408.735 90.5909 409.258 90.6212 409.818 90.6818C410.379 90.7424 410.871 90.8258 411.295 90.9318V99.5227C410.841 99.3864 410.212 99.2652 409.409 99.1591C408.606 99.053 407.871 99 407.205 99C405.78 99 404.508 99.3106 403.386 99.9318C402.28 100.538 401.402 101.386 400.75 102.477C400.114 103.568 399.795 104.826 399.795 106.25V126H390.114ZM431.295 126V79.4545H441.136V117.886H461.091V126H431.295ZM467.426 126V91.0909H477.108V126H467.426ZM472.29 86.5909C470.85 86.5909 469.616 86.1136 468.585 85.1591C467.57 84.1894 467.062 83.0303 467.062 81.6818C467.062 80.3485 467.57 79.2045 468.585 78.25C469.616 77.2803 470.85 76.7955 472.29 76.7955C473.729 76.7955 474.956 77.2803 475.972 78.25C477.002 79.2045 477.517 80.3485 477.517 81.6818C477.517 83.0303 477.002 84.1894 475.972 85.1591C474.956 86.1136 473.729 86.5909 472.29 86.5909ZM494.545 105.818V126H484.864V91.0909H494.091V97.25H494.5C495.273 95.2197 496.568 93.6136 498.386 92.4318C500.205 91.2348 502.409 90.6364 505 90.6364C507.424 90.6364 509.538 91.1667 511.341 92.2273C513.144 93.2879 514.545 94.803 515.545 96.7727C516.545 98.7273 517.045 101.061 517.045 103.773V126H507.364V105.5C507.379 103.364 506.833 101.697 505.727 100.5C504.621 99.2879 503.098 98.6818 501.159 98.6818C499.856 98.6818 498.705 98.9621 497.705 99.5227C496.72 100.083 495.947 100.902 495.386 101.977C494.841 103.038 494.561 104.318 494.545 105.818ZM533.449 115.955L533.472 104.341H534.881L546.062 91.0909H557.176L542.153 108.636H539.858L533.449 115.955ZM524.676 126V79.4545H534.358V126H524.676ZM546.494 126L536.222 110.795L542.676 103.955L557.835 126H546.494ZM299.295 169.841C299.114 168.008 298.333 166.583 296.955 165.568C295.576 164.553 293.705 164.045 291.341 164.045C289.735 164.045 288.379 164.273 287.273 164.727C286.167 165.167 285.318 165.78 284.727 166.568C284.152 167.356 283.864 168.25 283.864 169.25C283.833 170.083 284.008 170.811 284.386 171.432C284.78 172.053 285.318 172.591 286 173.045C286.682 173.485 287.47 173.871 288.364 174.205C289.258 174.523 290.212 174.795 291.227 175.023L295.409 176.023C297.439 176.477 299.303 177.083 301 177.841C302.697 178.598 304.167 179.53 305.409 180.636C306.652 181.742 307.614 183.045 308.295 184.545C308.992 186.045 309.348 187.765 309.364 189.705C309.348 192.553 308.621 195.023 307.182 197.114C305.758 199.189 303.697 200.803 301 201.955C298.318 203.091 295.083 203.659 291.295 203.659C287.538 203.659 284.265 203.083 281.477 201.932C278.705 200.78 276.538 199.076 274.977 196.818C273.432 194.545 272.621 191.735 272.545 188.386H282.068C282.174 189.947 282.621 191.25 283.409 192.295C284.212 193.326 285.28 194.106 286.614 194.636C287.962 195.152 289.485 195.409 291.182 195.409C292.848 195.409 294.295 195.167 295.523 194.682C296.765 194.197 297.727 193.523 298.409 192.659C299.091 191.795 299.432 190.803 299.432 189.682C299.432 188.636 299.121 187.758 298.5 187.045C297.894 186.333 297 185.727 295.818 185.227C294.652 184.727 293.22 184.273 291.523 183.864L286.455 182.591C282.53 181.636 279.432 180.144 277.159 178.114C274.886 176.083 273.758 173.348 273.773 169.909C273.758 167.091 274.508 164.629 276.023 162.523C277.553 160.417 279.652 158.773 282.318 157.591C284.985 156.409 288.015 155.818 291.409 155.818C294.864 155.818 297.879 156.409 300.455 157.591C303.045 158.773 305.061 160.417 306.5 162.523C307.939 164.629 308.682 167.068 308.727 169.841H299.295ZM321.778 216.091C320.551 216.091 319.4 215.992 318.324 215.795C317.263 215.614 316.384 215.379 315.688 215.091L317.869 207.864C319.006 208.212 320.028 208.402 320.938 208.432C321.862 208.462 322.657 208.25 323.324 207.795C324.006 207.341 324.559 206.568 324.983 205.477L325.551 204L313.028 168.091H323.21L330.438 193.727H330.801L338.097 168.091H348.347L334.778 206.773C334.127 208.652 333.241 210.288 332.119 211.682C331.013 213.091 329.612 214.174 327.915 214.932C326.218 215.705 324.172 216.091 321.778 216.091ZM382.347 178.045L373.483 178.591C373.331 177.833 373.006 177.152 372.506 176.545C372.006 175.924 371.347 175.432 370.528 175.068C369.725 174.689 368.763 174.5 367.642 174.5C366.142 174.5 364.877 174.818 363.847 175.455C362.816 176.076 362.301 176.909 362.301 177.955C362.301 178.788 362.634 179.492 363.301 180.068C363.968 180.644 365.112 181.106 366.733 181.455L373.051 182.727C376.445 183.424 378.975 184.545 380.642 186.091C382.309 187.636 383.142 189.667 383.142 192.182C383.142 194.47 382.468 196.477 381.119 198.205C379.786 199.932 377.953 201.28 375.619 202.25C373.301 203.205 370.627 203.682 367.597 203.682C362.975 203.682 359.294 202.72 356.551 200.795C353.824 198.856 352.225 196.22 351.756 192.886L361.278 192.386C361.566 193.795 362.263 194.871 363.369 195.614C364.475 196.341 365.892 196.705 367.619 196.705C369.316 196.705 370.68 196.379 371.71 195.727C372.756 195.061 373.286 194.205 373.301 193.159C373.286 192.28 372.915 191.561 372.188 191C371.46 190.424 370.339 189.985 368.824 189.682L362.778 188.477C359.369 187.795 356.831 186.614 355.165 184.932C353.513 183.25 352.688 181.106 352.688 178.5C352.688 176.258 353.294 174.326 354.506 172.705C355.733 171.083 357.453 169.833 359.665 168.955C361.892 168.076 364.498 167.636 367.483 167.636C371.892 167.636 375.362 168.568 377.892 170.432C380.438 172.295 381.922 174.833 382.347 178.045ZM407.807 168.091V175.364H386.784V168.091H407.807ZM391.557 159.727H401.239V192.273C401.239 193.167 401.375 193.864 401.648 194.364C401.92 194.848 402.299 195.189 402.784 195.386C403.284 195.583 403.86 195.682 404.511 195.682C404.966 195.682 405.42 195.644 405.875 195.568C406.33 195.477 406.678 195.409 406.92 195.364L408.443 202.568C407.958 202.72 407.277 202.894 406.398 203.091C405.519 203.303 404.451 203.432 403.193 203.477C400.86 203.568 398.814 203.258 397.057 202.545C395.314 201.833 393.958 200.727 392.989 199.227C392.019 197.727 391.542 195.833 391.557 193.545V159.727ZM429.648 203.682C426.057 203.682 422.966 202.955 420.375 201.5C417.799 200.03 415.814 197.955 414.42 195.273C413.027 192.576 412.33 189.386 412.33 185.705C412.33 182.114 413.027 178.962 414.42 176.25C415.814 173.538 417.777 171.424 420.307 169.909C422.852 168.394 425.837 167.636 429.261 167.636C431.564 167.636 433.708 168.008 435.693 168.75C437.693 169.477 439.436 170.576 440.92 172.045C442.42 173.515 443.587 175.364 444.42 177.591C445.254 179.803 445.67 182.394 445.67 185.364V188.023H416.193V182.023H436.557C436.557 180.629 436.254 179.394 435.648 178.318C435.042 177.242 434.201 176.402 433.125 175.795C432.064 175.174 430.83 174.864 429.42 174.864C427.951 174.864 426.648 175.205 425.511 175.886C424.39 176.553 423.511 177.455 422.875 178.591C422.239 179.712 421.913 180.962 421.898 182.341V188.045C421.898 189.773 422.216 191.265 422.852 192.523C423.504 193.78 424.42 194.75 425.602 195.432C426.784 196.114 428.186 196.455 429.807 196.455C430.883 196.455 431.867 196.303 432.761 196C433.655 195.697 434.42 195.242 435.057 194.636C435.693 194.03 436.178 193.288 436.511 192.409L445.466 193C445.011 195.152 444.08 197.03 442.67 198.636C441.277 200.227 439.473 201.47 437.261 202.364C435.064 203.242 432.527 203.682 429.648 203.682ZM451.989 203V168.091H461.216V174.25H461.625C462.352 172.205 463.564 170.591 465.261 169.409C466.958 168.227 468.989 167.636 471.352 167.636C473.746 167.636 475.784 168.235 477.466 169.432C479.148 170.614 480.269 172.22 480.83 174.25H481.193C481.905 172.25 483.193 170.652 485.057 169.455C486.936 168.242 489.155 167.636 491.716 167.636C494.973 167.636 497.617 168.674 499.648 170.75C501.693 172.811 502.716 175.735 502.716 179.523V203H493.057V181.432C493.057 179.492 492.542 178.038 491.511 177.068C490.481 176.098 489.193 175.614 487.648 175.614C485.89 175.614 484.519 176.174 483.534 177.295C482.549 178.402 482.057 179.864 482.057 181.682V203H472.67V181.227C472.67 179.515 472.178 178.152 471.193 177.136C470.223 176.121 468.943 175.614 467.352 175.614C466.277 175.614 465.307 175.886 464.443 176.432C463.595 176.962 462.92 177.712 462.42 178.682C461.92 179.636 461.67 180.758 461.67 182.045V203H451.989ZM539.409 178.045L530.545 178.591C530.394 177.833 530.068 177.152 529.568 176.545C529.068 175.924 528.409 175.432 527.591 175.068C526.788 174.689 525.826 174.5 524.705 174.5C523.205 174.5 521.939 174.818 520.909 175.455C519.879 176.076 519.364 176.909 519.364 177.955C519.364 178.788 519.697 179.492 520.364 180.068C521.03 180.644 522.174 181.106 523.795 181.455L530.114 182.727C533.508 183.424 536.038 184.545 537.705 186.091C539.371 187.636 540.205 189.667 540.205 192.182C540.205 194.47 539.53 196.477 538.182 198.205C536.848 199.932 535.015 201.28 532.682 202.25C530.364 203.205 527.689 203.682 524.659 203.682C520.038 203.682 516.356 202.72 513.614 200.795C510.886 198.856 509.288 196.22 508.818 192.886L518.341 192.386C518.629 193.795 519.326 194.871 520.432 195.614C521.538 196.341 522.955 196.705 524.682 196.705C526.379 196.705 527.742 196.379 528.773 195.727C529.818 195.061 530.348 194.205 530.364 193.159C530.348 192.28 529.977 191.561 529.25 191C528.523 190.424 527.402 189.985 525.886 189.682L519.841 188.477C516.432 187.795 513.894 186.614 512.227 184.932C510.576 183.25 509.75 181.106 509.75 178.5C509.75 176.258 510.356 174.326 511.568 172.705C512.795 171.083 514.515 169.833 516.727 168.955C518.955 168.076 521.561 167.636 524.545 167.636C528.955 167.636 532.424 168.568 534.955 170.432C537.5 172.295 538.985 174.833 539.409 178.045Z"/>
</mask>
<path d="M274.045 126V79.4545H292.409C295.939 79.4545 298.947 80.1288 301.432 81.4773C303.917 82.8106 305.811 84.6667 307.114 87.0455C308.432 89.4091 309.091 92.1364 309.091 95.2273C309.091 98.3182 308.424 101.045 307.091 103.409C305.758 105.773 303.826 107.614 301.295 108.932C298.78 110.25 295.735 110.909 292.159 110.909H280.455V103.023H290.568C292.462 103.023 294.023 102.697 295.25 102.045C296.492 101.379 297.417 100.462 298.023 99.2955C298.644 98.1136 298.955 96.7576 298.955 95.2273C298.955 93.6818 298.644 92.3333 298.023 91.1818C297.417 90.0151 296.492 89.1136 295.25 88.4773C294.008 87.8258 292.432 87.5 290.523 87.5H283.886V126H274.045ZM330.648 126.682C327.057 126.682 323.966 125.955 321.375 124.5C318.799 123.03 316.814 120.955 315.42 118.273C314.027 115.576 313.33 112.386 313.33 108.705C313.33 105.114 314.027 101.962 315.42 99.25C316.814 96.5379 318.777 94.4242 321.307 92.9091C323.852 91.3939 326.837 90.6364 330.261 90.6364C332.564 90.6364 334.708 91.0076 336.693 91.75C338.693 92.4773 340.436 93.5758 341.92 95.0455C343.42 96.5152 344.587 98.3636 345.42 100.591C346.254 102.803 346.67 105.394 346.67 108.364V111.023H317.193V105.023H337.557C337.557 103.629 337.254 102.394 336.648 101.318C336.042 100.242 335.201 99.4015 334.125 98.7955C333.064 98.1742 331.83 97.8636 330.42 97.8636C328.951 97.8636 327.648 98.2045 326.511 98.8864C325.39 99.553 324.511 100.455 323.875 101.591C323.239 102.712 322.913 103.962 322.898 105.341V111.045C322.898 112.773 323.216 114.265 323.852 115.523C324.504 116.78 325.42 117.75 326.602 118.432C327.784 119.114 329.186 119.455 330.807 119.455C331.883 119.455 332.867 119.303 333.761 119C334.655 118.697 335.42 118.242 336.057 117.636C336.693 117.03 337.178 116.288 337.511 115.409L346.466 116C346.011 118.152 345.08 120.03 343.67 121.636C342.277 123.227 340.473 124.47 338.261 125.364C336.064 126.242 333.527 126.682 330.648 126.682ZM362.943 126.659C360.716 126.659 358.731 126.273 356.989 125.5C355.246 124.712 353.867 123.553 352.852 122.023C351.852 120.477 351.352 118.553 351.352 116.25C351.352 114.311 351.708 112.682 352.42 111.364C353.133 110.045 354.102 108.985 355.33 108.182C356.557 107.379 357.951 106.773 359.511 106.364C361.087 105.955 362.739 105.667 364.466 105.5C366.496 105.288 368.133 105.091 369.375 104.909C370.617 104.712 371.519 104.424 372.08 104.045C372.64 103.667 372.92 103.106 372.92 102.364V102.227C372.92 100.788 372.466 99.6742 371.557 98.8864C370.663 98.0985 369.39 97.7045 367.739 97.7045C365.996 97.7045 364.61 98.0909 363.58 98.8636C362.549 99.6212 361.867 100.576 361.534 101.727L352.58 101C353.034 98.8788 353.928 97.0455 355.261 95.5C356.595 93.9394 358.314 92.7424 360.42 91.9091C362.542 91.0606 364.996 90.6364 367.784 90.6364C369.723 90.6364 371.58 90.8636 373.352 91.3182C375.14 91.7727 376.723 92.4773 378.102 93.4318C379.496 94.3864 380.595 95.6136 381.398 97.1136C382.201 98.5985 382.602 100.379 382.602 102.455V126H373.42V121.159H373.148C372.587 122.25 371.837 123.212 370.898 124.045C369.958 124.864 368.83 125.508 367.511 125.977C366.193 126.432 364.67 126.659 362.943 126.659ZM365.716 119.977C367.14 119.977 368.398 119.697 369.489 119.136C370.58 118.561 371.436 117.788 372.057 116.818C372.678 115.848 372.989 114.75 372.989 113.523V109.818C372.686 110.015 372.269 110.197 371.739 110.364C371.223 110.515 370.64 110.659 369.989 110.795C369.337 110.917 368.686 111.03 368.034 111.136C367.383 111.227 366.792 111.311 366.261 111.386C365.125 111.553 364.133 111.818 363.284 112.182C362.436 112.545 361.777 113.038 361.307 113.659C360.837 114.265 360.602 115.023 360.602 115.932C360.602 117.25 361.08 118.258 362.034 118.955C363.004 119.636 364.231 119.977 365.716 119.977ZM390.114 126V91.0909H399.5V97.1818H399.864C400.5 95.0152 401.568 93.3788 403.068 92.2727C404.568 91.1515 406.295 90.5909 408.25 90.5909C408.735 90.5909 409.258 90.6212 409.818 90.6818C410.379 90.7424 410.871 90.8258 411.295 90.9318V99.5227C410.841 99.3864 410.212 99.2652 409.409 99.1591C408.606 99.053 407.871 99 407.205 99C405.78 99 404.508 99.3106 403.386 99.9318C402.28 100.538 401.402 101.386 400.75 102.477C400.114 103.568 399.795 104.826 399.795 106.25V126H390.114ZM431.295 126V79.4545H441.136V117.886H461.091V126H431.295ZM467.426 126V91.0909H477.108V126H467.426ZM472.29 86.5909C470.85 86.5909 469.616 86.1136 468.585 85.1591C467.57 84.1894 467.062 83.0303 467.062 81.6818C467.062 80.3485 467.57 79.2045 468.585 78.25C469.616 77.2803 470.85 76.7955 472.29 76.7955C473.729 76.7955 474.956 77.2803 475.972 78.25C477.002 79.2045 477.517 80.3485 477.517 81.6818C477.517 83.0303 477.002 84.1894 475.972 85.1591C474.956 86.1136 473.729 86.5909 472.29 86.5909ZM494.545 105.818V126H484.864V91.0909H494.091V97.25H494.5C495.273 95.2197 496.568 93.6136 498.386 92.4318C500.205 91.2348 502.409 90.6364 505 90.6364C507.424 90.6364 509.538 91.1667 511.341 92.2273C513.144 93.2879 514.545 94.803 515.545 96.7727C516.545 98.7273 517.045 101.061 517.045 103.773V126H507.364V105.5C507.379 103.364 506.833 101.697 505.727 100.5C504.621 99.2879 503.098 98.6818 501.159 98.6818C499.856 98.6818 498.705 98.9621 497.705 99.5227C496.72 100.083 495.947 100.902 495.386 101.977C494.841 103.038 494.561 104.318 494.545 105.818ZM533.449 115.955L533.472 104.341H534.881L546.062 91.0909H557.176L542.153 108.636H539.858L533.449 115.955ZM524.676 126V79.4545H534.358V126H524.676ZM546.494 126L536.222 110.795L542.676 103.955L557.835 126H546.494ZM299.295 169.841C299.114 168.008 298.333 166.583 296.955 165.568C295.576 164.553 293.705 164.045 291.341 164.045C289.735 164.045 288.379 164.273 287.273 164.727C286.167 165.167 285.318 165.78 284.727 166.568C284.152 167.356 283.864 168.25 283.864 169.25C283.833 170.083 284.008 170.811 284.386 171.432C284.78 172.053 285.318 172.591 286 173.045C286.682 173.485 287.47 173.871 288.364 174.205C289.258 174.523 290.212 174.795 291.227 175.023L295.409 176.023C297.439 176.477 299.303 177.083 301 177.841C302.697 178.598 304.167 179.53 305.409 180.636C306.652 181.742 307.614 183.045 308.295 184.545C308.992 186.045 309.348 187.765 309.364 189.705C309.348 192.553 308.621 195.023 307.182 197.114C305.758 199.189 303.697 200.803 301 201.955C298.318 203.091 295.083 203.659 291.295 203.659C287.538 203.659 284.265 203.083 281.477 201.932C278.705 200.78 276.538 199.076 274.977 196.818C273.432 194.545 272.621 191.735 272.545 188.386H282.068C282.174 189.947 282.621 191.25 283.409 192.295C284.212 193.326 285.28 194.106 286.614 194.636C287.962 195.152 289.485 195.409 291.182 195.409C292.848 195.409 294.295 195.167 295.523 194.682C296.765 194.197 297.727 193.523 298.409 192.659C299.091 191.795 299.432 190.803 299.432 189.682C299.432 188.636 299.121 187.758 298.5 187.045C297.894 186.333 297 185.727 295.818 185.227C294.652 184.727 293.22 184.273 291.523 183.864L286.455 182.591C282.53 181.636 279.432 180.144 277.159 178.114C274.886 176.083 273.758 173.348 273.773 169.909C273.758 167.091 274.508 164.629 276.023 162.523C277.553 160.417 279.652 158.773 282.318 157.591C284.985 156.409 288.015 155.818 291.409 155.818C294.864 155.818 297.879 156.409 300.455 157.591C303.045 158.773 305.061 160.417 306.5 162.523C307.939 164.629 308.682 167.068 308.727 169.841H299.295ZM321.778 216.091C320.551 216.091 319.4 215.992 318.324 215.795C317.263 215.614 316.384 215.379 315.688 215.091L317.869 207.864C319.006 208.212 320.028 208.402 320.938 208.432C321.862 208.462 322.657 208.25 323.324 207.795C324.006 207.341 324.559 206.568 324.983 205.477L325.551 204L313.028 168.091H323.21L330.438 193.727H330.801L338.097 168.091H348.347L334.778 206.773C334.127 208.652 333.241 210.288 332.119 211.682C331.013 213.091 329.612 214.174 327.915 214.932C326.218 215.705 324.172 216.091 321.778 216.091ZM382.347 178.045L373.483 178.591C373.331 177.833 373.006 177.152 372.506 176.545C372.006 175.924 371.347 175.432 370.528 175.068C369.725 174.689 368.763 174.5 367.642 174.5C366.142 174.5 364.877 174.818 363.847 175.455C362.816 176.076 362.301 176.909 362.301 177.955C362.301 178.788 362.634 179.492 363.301 180.068C363.968 180.644 365.112 181.106 366.733 181.455L373.051 182.727C376.445 183.424 378.975 184.545 380.642 186.091C382.309 187.636 383.142 189.667 383.142 192.182C383.142 194.47 382.468 196.477 381.119 198.205C379.786 199.932 377.953 201.28 375.619 202.25C373.301 203.205 370.627 203.682 367.597 203.682C362.975 203.682 359.294 202.72 356.551 200.795C353.824 198.856 352.225 196.22 351.756 192.886L361.278 192.386C361.566 193.795 362.263 194.871 363.369 195.614C364.475 196.341 365.892 196.705 367.619 196.705C369.316 196.705 370.68 196.379 371.71 195.727C372.756 195.061 373.286 194.205 373.301 193.159C373.286 192.28 372.915 191.561 372.188 191C371.46 190.424 370.339 189.985 368.824 189.682L362.778 188.477C359.369 187.795 356.831 186.614 355.165 184.932C353.513 183.25 352.688 181.106 352.688 178.5C352.688 176.258 353.294 174.326 354.506 172.705C355.733 171.083 357.453 169.833 359.665 168.955C361.892 168.076 364.498 167.636 367.483 167.636C371.892 167.636 375.362 168.568 377.892 170.432C380.438 172.295 381.922 174.833 382.347 178.045ZM407.807 168.091V175.364H386.784V168.091H407.807ZM391.557 159.727H401.239V192.273C401.239 193.167 401.375 193.864 401.648 194.364C401.92 194.848 402.299 195.189 402.784 195.386C403.284 195.583 403.86 195.682 404.511 195.682C404.966 195.682 405.42 195.644 405.875 195.568C406.33 195.477 406.678 195.409 406.92 195.364L408.443 202.568C407.958 202.72 407.277 202.894 406.398 203.091C405.519 203.303 404.451 203.432 403.193 203.477C400.86 203.568 398.814 203.258 397.057 202.545C395.314 201.833 393.958 200.727 392.989 199.227C392.019 197.727 391.542 195.833 391.557 193.545V159.727ZM429.648 203.682C426.057 203.682 422.966 202.955 420.375 201.5C417.799 200.03 415.814 197.955 414.42 195.273C413.027 192.576 412.33 189.386 412.33 185.705C412.33 182.114 413.027 178.962 414.42 176.25C415.814 173.538 417.777 171.424 420.307 169.909C422.852 168.394 425.837 167.636 429.261 167.636C431.564 167.636 433.708 168.008 435.693 168.75C437.693 169.477 439.436 170.576 440.92 172.045C442.42 173.515 443.587 175.364 444.42 177.591C445.254 179.803 445.67 182.394 445.67 185.364V188.023H416.193V182.023H436.557C436.557 180.629 436.254 179.394 435.648 178.318C435.042 177.242 434.201 176.402 433.125 175.795C432.064 175.174 430.83 174.864 429.42 174.864C427.951 174.864 426.648 175.205 425.511 175.886C424.39 176.553 423.511 177.455 422.875 178.591C422.239 179.712 421.913 180.962 421.898 182.341V188.045C421.898 189.773 422.216 191.265 422.852 192.523C423.504 193.78 424.42 194.75 425.602 195.432C426.784 196.114 428.186 196.455 429.807 196.455C430.883 196.455 431.867 196.303 432.761 196C433.655 195.697 434.42 195.242 435.057 194.636C435.693 194.03 436.178 193.288 436.511 192.409L445.466 193C445.011 195.152 444.08 197.03 442.67 198.636C441.277 200.227 439.473 201.47 437.261 202.364C435.064 203.242 432.527 203.682 429.648 203.682ZM451.989 203V168.091H461.216V174.25H461.625C462.352 172.205 463.564 170.591 465.261 169.409C466.958 168.227 468.989 167.636 471.352 167.636C473.746 167.636 475.784 168.235 477.466 169.432C479.148 170.614 480.269 172.22 480.83 174.25H481.193C481.905 172.25 483.193 170.652 485.057 169.455C486.936 168.242 489.155 167.636 491.716 167.636C494.973 167.636 497.617 168.674 499.648 170.75C501.693 172.811 502.716 175.735 502.716 179.523V203H493.057V181.432C493.057 179.492 492.542 178.038 491.511 177.068C490.481 176.098 489.193 175.614 487.648 175.614C485.89 175.614 484.519 176.174 483.534 177.295C482.549 178.402 482.057 179.864 482.057 181.682V203H472.67V181.227C472.67 179.515 472.178 178.152 471.193 177.136C470.223 176.121 468.943 175.614 467.352 175.614C466.277 175.614 465.307 175.886 464.443 176.432C463.595 176.962 462.92 177.712 462.42 178.682C461.92 179.636 461.67 180.758 461.67 182.045V203H451.989ZM539.409 178.045L530.545 178.591C530.394 177.833 530.068 177.152 529.568 176.545C529.068 175.924 528.409 175.432 527.591 175.068C526.788 174.689 525.826 174.5 524.705 174.5C523.205 174.5 521.939 174.818 520.909 175.455C519.879 176.076 519.364 176.909 519.364 177.955C519.364 178.788 519.697 179.492 520.364 180.068C521.03 180.644 522.174 181.106 523.795 181.455L530.114 182.727C533.508 183.424 536.038 184.545 537.705 186.091C539.371 187.636 540.205 189.667 540.205 192.182C540.205 194.47 539.53 196.477 538.182 198.205C536.848 199.932 535.015 201.28 532.682 202.25C530.364 203.205 527.689 203.682 524.659 203.682C520.038 203.682 516.356 202.72 513.614 200.795C510.886 198.856 509.288 196.22 508.818 192.886L518.341 192.386C518.629 193.795 519.326 194.871 520.432 195.614C521.538 196.341 522.955 196.705 524.682 196.705C526.379 196.705 527.742 196.379 528.773 195.727C529.818 195.061 530.348 194.205 530.364 193.159C530.348 192.28 529.977 191.561 529.25 191C528.523 190.424 527.402 189.985 525.886 189.682L519.841 188.477C516.432 187.795 513.894 186.614 512.227 184.932C510.576 183.25 509.75 181.106 509.75 178.5C509.75 176.258 510.356 174.326 511.568 172.705C512.795 171.083 514.515 169.833 516.727 168.955C518.955 168.076 521.561 167.636 524.545 167.636C528.955 167.636 532.424 168.568 534.955 170.432C537.5 172.295 538.985 174.833 539.409 178.045Z" fill="white"/>
<path d="M274.045 126H273.045V127H274.045V126ZM274.045 79.4545V78.4545H273.045V79.4545H274.045ZM301.432 81.4773L300.955 82.3562L300.959 82.3584L301.432 81.4773ZM307.114 87.0455L306.237 87.5259L306.24 87.5325L307.114 87.0455ZM301.295 108.932L300.833 108.045L300.831 108.046L301.295 108.932ZM280.455 110.909H279.455V111.909H280.455V110.909ZM280.455 103.023V102.023H279.455V103.023H280.455ZM295.25 102.045L295.719 102.929L295.723 102.927L295.25 102.045ZM298.023 99.2955L297.138 98.8302L297.135 98.8345L298.023 99.2955ZM298.023 91.1818L297.135 91.6428L297.139 91.6497L297.143 91.6566L298.023 91.1818ZM295.25 88.4773L294.786 89.3629L294.794 89.3673L295.25 88.4773ZM283.886 87.5V86.5H282.886V87.5H283.886ZM283.886 126V127H284.886V126H283.886ZM275.045 126V79.4545H273.045V126H275.045ZM274.045 80.4545H292.409V78.4545H274.045V80.4545ZM292.409 80.4545C295.814 80.4545 298.648 81.1046 300.955 82.3562L301.909 80.5984C299.245 79.153 296.065 78.4545 292.409 78.4545V80.4545ZM300.959 82.3584C303.28 83.604 305.03 85.324 306.237 87.5259L307.991 86.565C306.591 84.0094 304.553 82.0172 301.905 80.5961L300.959 82.3584ZM306.24 87.5325C307.464 89.7272 308.091 92.2823 308.091 95.2273H310.091C310.091 91.9904 309.399 89.091 307.987 86.5584L306.24 87.5325ZM308.091 95.2273C308.091 98.1703 307.458 100.724 306.22 102.918L307.962 103.9C309.391 101.367 310.091 98.466 310.091 95.2273H308.091ZM306.22 102.918C304.987 105.104 303.201 106.811 300.833 108.045L301.757 109.819C304.45 108.416 306.528 106.442 307.962 103.9L306.22 102.918ZM300.831 108.046C298.492 109.272 295.614 109.909 292.159 109.909V111.909C295.856 111.909 299.069 111.228 301.76 109.818L300.831 108.046ZM292.159 109.909H280.455V111.909H292.159V109.909ZM281.455 110.909V103.023H279.455V110.909H281.455ZM280.455 104.023H290.568V102.023H280.455V104.023ZM290.568 104.023C292.569 104.023 294.304 103.68 295.719 102.929L294.781 101.162C293.741 101.714 292.355 102.023 290.568 102.023V104.023ZM295.723 102.927C297.129 102.172 298.204 101.115 298.91 99.7564L297.135 98.8345C296.629 99.8094 295.856 100.586 294.777 101.164L295.723 102.927ZM298.908 99.7607C299.615 98.4157 299.955 96.8958 299.955 95.2273H297.955C297.955 96.6193 297.673 97.8116 297.138 98.8302L298.908 99.7607ZM299.955 95.2273C299.955 93.5461 299.616 92.0288 298.903 90.707L297.143 91.6566C297.672 92.6379 297.955 93.8175 297.955 95.2273H299.955ZM298.91 90.7208C298.202 89.3581 297.121 88.3121 295.706 87.5872L294.794 89.3673C295.864 89.9152 296.631 90.6722 297.135 91.6428L298.91 90.7208ZM295.714 87.5917C294.286 86.8429 292.538 86.5 290.523 86.5V88.5C292.326 88.5 293.729 88.8087 294.786 89.3629L295.714 87.5917ZM290.523 86.5H283.886V88.5H290.523V86.5ZM282.886 87.5V126H284.886V87.5H282.886ZM283.886 125H274.045V127H283.886V125ZM321.375 124.5L320.879 125.369L320.885 125.372L321.375 124.5ZM315.42 118.273L314.532 118.732L314.533 118.734L315.42 118.273ZM315.42 99.25L314.531 98.7929L314.531 98.7929L315.42 99.25ZM321.307 92.9091L320.795 92.0498L320.793 92.0511L321.307 92.9091ZM336.693 91.75L336.343 92.6867L336.351 92.6898L336.693 91.75ZM341.92 95.0455L341.217 95.7562L341.221 95.7597L341.92 95.0455ZM345.42 100.591L344.484 100.941L344.485 100.943L345.42 100.591ZM346.67 111.023V112.023H347.67V111.023H346.67ZM317.193 111.023H316.193V112.023H317.193V111.023ZM317.193 105.023V104.023H316.193V105.023H317.193ZM337.557 105.023V106.023H338.557V105.023H337.557ZM336.648 101.318L335.776 101.809L335.776 101.809L336.648 101.318ZM334.125 98.7955L333.62 99.6583L333.627 99.6626L333.634 99.6667L334.125 98.7955ZM326.511 98.8864L327.022 99.7459L327.026 99.7439L326.511 98.8864ZM323.875 101.591L324.745 102.085L324.748 102.08L323.875 101.591ZM322.898 105.341L321.898 105.33V105.341H322.898ZM323.852 115.523L322.96 115.974L322.964 115.983L323.852 115.523ZM333.761 119L333.44 118.053L333.44 118.053L333.761 119ZM336.057 117.636L335.367 116.912L335.367 116.912L336.057 117.636ZM337.511 115.409L337.577 114.411L336.839 114.363L336.576 115.054L337.511 115.409ZM346.466 116L347.444 116.207L347.683 115.078L346.532 115.002L346.466 116ZM343.67 121.636L342.919 120.977L342.918 120.977L343.67 121.636ZM338.261 125.364L338.633 126.292L338.636 126.291L338.261 125.364ZM330.648 125.682C327.193 125.682 324.278 124.983 321.865 123.628L320.885 125.372C323.654 126.926 326.921 127.682 330.648 127.682V125.682ZM321.871 123.631C319.465 122.259 317.615 120.326 316.308 117.812L314.533 118.734C316.014 121.583 318.133 123.802 320.879 125.369L321.871 123.631ZM316.309 117.814C315.002 115.286 314.33 112.26 314.33 108.705H312.33C312.33 112.513 313.051 115.866 314.532 118.732L316.309 117.814ZM314.33 108.705C314.33 105.244 315 102.255 316.31 99.7071L314.531 98.7929C313.053 101.67 312.33 104.983 312.33 108.705H314.33ZM316.31 99.7071C317.621 97.1551 319.456 95.1829 321.821 93.767L320.793 92.0511C318.097 93.6656 316.007 95.9206 314.531 98.7929L316.31 99.7071ZM321.818 93.7684C324.186 92.3589 326.989 91.6364 330.261 91.6364V89.6364C326.686 89.6364 323.518 90.429 320.795 92.0498L321.818 93.7684ZM330.261 91.6364C332.455 91.6364 334.479 91.9896 336.343 92.6866L337.044 90.8134C334.937 90.0255 332.674 89.6364 330.261 89.6364V91.6364ZM336.351 92.6898C338.218 93.3687 339.837 94.39 341.217 95.7562L342.624 94.3347C341.035 92.7615 339.168 91.5859 337.035 90.8102L336.351 92.6898ZM341.221 95.7597C342.603 97.1142 343.695 98.833 344.484 100.941L346.357 100.24C345.479 97.8943 344.238 95.9161 342.62 94.3312L341.221 95.7597ZM344.485 100.943C345.266 103.018 345.67 105.485 345.67 108.364H347.67C347.67 105.303 347.241 102.588 346.356 100.238L344.485 100.943ZM345.67 108.364V111.023H347.67V108.364H345.67ZM346.67 110.023H317.193V112.023H346.67V110.023ZM318.193 111.023V105.023H316.193V111.023H318.193ZM317.193 106.023H337.557V104.023H317.193V106.023ZM338.557 105.023C338.557 103.479 338.22 102.071 337.519 100.827L335.776 101.809C336.288 102.716 336.557 103.778 336.557 105.023H338.557ZM337.519 100.827C336.823 99.5924 335.851 98.6199 334.616 97.9242L333.634 99.6667C334.551 100.183 335.26 100.892 335.776 101.809L337.519 100.827ZM334.63 97.9326C333.395 97.2091 331.981 96.8636 330.42 96.8636V98.8636C331.678 98.8636 332.734 99.1394 333.62 99.6583L334.63 97.9326ZM330.42 96.8636C328.79 96.8636 327.305 97.2439 325.997 98.0289L327.026 99.7439C327.99 99.1652 329.112 98.8636 330.42 98.8636V96.8636ZM326 98.0268C324.728 98.7831 323.725 99.8125 323.002 101.102L324.748 102.08C325.298 101.097 326.052 100.323 327.022 99.7459L326 98.0268ZM323.005 101.097C322.28 102.376 321.915 103.794 321.898 105.33L323.898 105.352C323.911 104.13 324.198 103.048 324.745 102.085L323.005 101.097ZM321.898 105.341V111.045H323.898V105.341H321.898ZM321.898 111.045C321.898 112.895 322.239 114.549 322.96 115.974L324.745 115.071C324.193 113.982 323.898 112.651 323.898 111.045H321.898ZM322.964 115.983C323.7 117.403 324.749 118.517 326.103 119.298L327.102 117.566C326.092 116.983 325.307 116.157 324.74 115.063L322.964 115.983ZM326.103 119.298C327.463 120.083 329.043 120.455 330.807 120.455V118.455C329.328 118.455 328.106 118.145 327.102 117.566L326.103 119.298ZM330.807 120.455C331.977 120.455 333.072 120.29 334.082 119.947L333.44 118.053C332.663 118.316 331.788 118.455 330.807 118.455V120.455ZM334.082 119.947C335.104 119.601 335.997 119.074 336.746 118.361L335.367 116.912C334.844 117.411 334.207 117.793 333.44 118.053L334.082 119.947ZM336.746 118.361C337.499 117.644 338.064 116.773 338.446 115.764L336.576 115.054C336.292 115.803 335.888 116.416 335.367 116.912L336.746 118.361ZM337.446 116.407L346.4 116.998L346.532 115.002L337.577 114.411L337.446 116.407ZM345.488 115.793C345.067 117.782 344.211 119.504 342.919 120.977L344.422 122.296C345.948 120.557 346.955 118.521 347.444 116.207L345.488 115.793ZM342.918 120.977C341.64 122.436 339.972 123.594 337.887 124.436L338.636 126.291C340.974 125.346 342.913 124.018 344.423 122.295L342.918 120.977ZM337.89 124.435C335.834 125.258 333.426 125.682 330.648 125.682V127.682C333.627 127.682 336.295 127.227 338.633 126.292L337.89 124.435ZM356.989 125.5L356.577 126.411L356.583 126.414L356.989 125.5ZM352.852 122.023L352.013 122.566L352.019 122.576L352.852 122.023ZM352.42 111.364L351.541 110.888L351.541 110.888L352.42 111.364ZM355.33 108.182L354.782 107.345L354.782 107.345L355.33 108.182ZM359.511 106.364L359.26 105.396L359.258 105.396L359.511 106.364ZM364.466 105.5L364.562 106.495L364.57 106.495L364.466 105.5ZM369.375 104.909L369.52 105.899L369.532 105.897L369.375 104.909ZM372.08 104.045L371.52 103.217L371.52 103.217L372.08 104.045ZM371.557 98.8864L370.896 99.6366L370.902 99.6421L371.557 98.8864ZM363.58 98.8636L364.172 99.6693L364.18 99.6636L363.58 98.8636ZM361.534 101.727L361.453 102.724L362.267 102.79L362.495 102.005L361.534 101.727ZM352.58 101L351.602 100.79L351.363 101.904L352.499 101.997L352.58 101ZM355.261 95.5L356.019 96.1532L356.022 96.1496L355.261 95.5ZM360.42 91.9091L360.788 92.8389L360.792 92.8376L360.42 91.9091ZM373.352 91.3182L373.104 92.2868L373.106 92.2873L373.352 91.3182ZM378.102 93.4318L377.533 94.254L377.537 94.2569L378.102 93.4318ZM381.398 97.1136L380.516 97.5856L380.518 97.5893L381.398 97.1136ZM382.602 126V127H383.602V126H382.602ZM373.42 126H372.42V127H373.42V126ZM373.42 121.159H374.42V120.159H373.42V121.159ZM373.148 121.159V120.159H372.537L372.258 120.702L373.148 121.159ZM370.898 124.045L371.555 124.8L371.561 124.794L370.898 124.045ZM367.511 125.977L367.837 126.923L367.847 126.919L367.511 125.977ZM369.489 119.136L369.946 120.026L369.955 120.021L369.489 119.136ZM372.057 116.818L371.215 116.279L371.215 116.279L372.057 116.818ZM372.989 109.818H373.989V107.975L372.444 108.98L372.989 109.818ZM371.739 110.364L372.021 111.323L372.03 111.32L372.038 111.318L371.739 110.364ZM369.989 110.795L370.172 111.779L370.183 111.777L370.194 111.774L369.989 110.795ZM368.034 111.136L368.172 112.127L368.184 112.125L368.195 112.123L368.034 111.136ZM366.261 111.386L366.12 110.396L366.116 110.397L366.261 111.386ZM363.284 112.182L363.678 113.101L363.678 113.101L363.284 112.182ZM361.307 113.659L362.097 114.272L362.104 114.262L361.307 113.659ZM362.034 118.955L361.444 119.762L361.452 119.767L361.459 119.773L362.034 118.955ZM362.943 125.659C360.832 125.659 358.989 125.293 357.394 124.586L356.583 126.414C358.473 127.252 360.6 127.659 362.943 127.659V125.659ZM357.401 124.589C355.822 123.875 354.592 122.837 353.686 121.47L352.019 122.576C353.142 124.269 354.67 125.549 356.577 126.411L357.401 124.589ZM353.692 121.479C352.82 120.132 352.352 118.409 352.352 116.25H350.352C350.352 118.697 350.885 120.822 352.013 122.566L353.692 121.479ZM352.352 116.25C352.352 114.429 352.687 112.974 353.3 111.839L351.541 110.888C350.73 112.389 350.352 114.192 350.352 116.25H352.352ZM353.3 111.839C353.935 110.664 354.792 109.729 355.877 109.019L354.782 107.345C353.413 108.241 352.33 109.427 351.541 110.888L353.3 111.839ZM355.877 109.019C357.005 108.28 358.298 107.715 359.765 107.331L359.258 105.396C357.603 105.83 356.108 106.477 354.782 107.345L355.877 109.019ZM359.763 107.332C361.284 106.937 362.884 106.657 364.562 106.495L364.37 104.505C362.594 104.676 360.89 104.973 359.26 105.396L359.763 107.332ZM364.57 106.495C366.606 106.282 368.258 106.083 369.52 105.899L369.23 103.92C368.007 104.099 366.386 104.294 364.362 104.505L364.57 106.495ZM369.532 105.897C370.815 105.693 371.894 105.378 372.639 104.874L371.52 103.217C371.144 103.471 370.42 103.731 369.218 103.921L369.532 105.897ZM372.639 104.874C373.505 104.289 373.92 103.4 373.92 102.364H371.92C371.92 102.812 371.775 103.044 371.52 103.217L372.639 104.874ZM373.92 102.364V102.227H371.92V102.364H373.92ZM373.92 102.227C373.92 100.56 373.383 99.1459 372.212 98.1307L370.902 99.6421C371.549 100.203 371.92 101.015 371.92 102.227H373.92ZM372.218 98.1362C371.081 97.1345 369.54 96.7045 367.739 96.7045V98.7045C369.241 98.7045 370.244 99.0625 370.896 99.6366L372.218 98.1362ZM367.739 96.7045C365.855 96.7045 364.235 97.1221 362.98 98.0636L364.18 99.6636C364.985 99.0597 366.137 98.7045 367.739 98.7045V96.7045ZM362.987 98.058C361.792 98.9368 360.972 100.071 360.574 101.449L362.495 102.005C362.763 101.08 363.306 100.306 364.172 99.6693L362.987 98.058ZM361.615 100.731L352.66 100.003L352.499 101.997L361.453 102.724L361.615 100.731ZM353.557 101.21C353.979 99.2417 354.802 97.5636 356.019 96.1532L354.504 94.8468C353.054 96.5273 352.089 98.5158 351.602 100.79L353.557 101.21ZM356.022 96.1496C357.238 94.7254 358.818 93.6186 360.788 92.8389L360.053 90.9792C357.811 91.8663 355.951 93.1533 354.501 94.8504L356.022 96.1496ZM360.792 92.8376C362.772 92.0455 365.096 91.6364 367.784 91.6364V89.6364C364.896 89.6364 362.311 90.0757 360.049 90.9806L360.792 92.8376ZM367.784 91.6364C369.645 91.6364 371.417 91.8543 373.104 92.2868L373.601 90.3495C371.742 89.873 369.802 89.6364 367.784 89.6364V91.6364ZM373.106 92.2873C374.79 92.7155 376.262 93.3738 377.533 94.254L378.671 92.6096C377.185 91.5808 375.491 90.83 373.599 90.349L373.106 92.2873ZM377.537 94.2569C378.798 95.1202 379.788 96.226 380.516 97.5856L382.279 96.6417C381.401 95.0013 380.195 93.6526 378.667 92.6067L377.537 94.2569ZM380.518 97.5893C381.226 98.8982 381.602 100.507 381.602 102.455H383.602C383.602 100.25 383.176 98.2988 382.277 96.6379L380.518 97.5893ZM381.602 102.455V126H383.602V102.455H381.602ZM382.602 125H373.42V127H382.602V125ZM374.42 126V121.159H372.42V126H374.42ZM373.42 120.159H373.148V122.159H373.42V120.159ZM372.258 120.702C371.756 121.68 371.083 122.544 370.234 123.297L371.561 124.794C372.591 123.88 373.419 122.82 374.037 121.616L372.258 120.702ZM370.241 123.291C369.407 124.018 368.391 124.602 367.176 125.035L367.847 126.919C369.269 126.413 370.51 125.709 371.555 124.8L370.241 123.291ZM367.185 125.032C365.994 125.443 364.585 125.659 362.943 125.659V127.659C364.756 127.659 366.393 127.421 367.837 126.923L367.185 125.032ZM365.716 120.977C367.273 120.977 368.692 120.67 369.946 120.026L369.032 118.247C368.103 118.724 367.007 118.977 365.716 118.977V120.977ZM369.955 120.021C371.188 119.37 372.178 118.483 372.899 117.358L371.215 116.279C370.693 117.093 369.971 117.751 369.022 118.252L369.955 120.021ZM372.899 117.358C373.63 116.216 373.989 114.928 373.989 113.523H371.989C371.989 114.572 371.726 115.481 371.215 116.279L372.899 117.358ZM373.989 113.523V109.818H371.989V113.523H373.989ZM372.444 108.98C372.246 109.108 371.924 109.257 371.439 109.41L372.038 111.318C372.614 111.137 373.125 110.922 373.534 110.657L372.444 108.98ZM371.456 109.404C370.972 109.547 370.415 109.685 369.784 109.817L370.194 111.774C370.865 111.634 371.475 111.484 372.021 111.323L371.456 109.404ZM369.806 109.812C369.162 109.932 368.517 110.045 367.873 110.149L368.195 112.123C368.854 112.016 369.513 111.901 370.172 111.779L369.806 109.812ZM367.896 110.146C367.244 110.237 366.652 110.32 366.12 110.396L366.403 112.376C366.932 112.301 367.522 112.218 368.172 112.127L367.896 110.146ZM366.116 110.397C364.914 110.573 363.835 110.858 362.89 111.263L363.678 113.101C364.43 112.779 365.336 112.533 366.406 112.376L366.116 110.397ZM362.89 111.263C361.912 111.682 361.102 112.272 360.509 113.056L362.104 114.262C362.451 113.803 362.96 113.409 363.678 113.101L362.89 111.263ZM360.516 113.047C359.887 113.859 359.602 114.844 359.602 115.932H361.602C361.602 115.202 361.787 114.671 362.097 114.272L360.516 113.047ZM359.602 115.932C359.602 117.527 360.199 118.853 361.444 119.762L362.624 118.147C361.96 117.662 361.602 116.973 361.602 115.932H359.602ZM361.459 119.773C362.635 120.6 364.078 120.977 365.716 120.977V118.977C364.385 118.977 363.372 118.673 362.609 118.137L361.459 119.773ZM390.114 126H389.114V127H390.114V126ZM390.114 91.0909V90.0909H389.114V91.0909H390.114ZM399.5 91.0909H400.5V90.0909H399.5V91.0909ZM399.5 97.1818H398.5V98.1818H399.5V97.1818ZM399.864 97.1818V98.1818H400.612L400.823 97.4636L399.864 97.1818ZM403.068 92.2727L403.662 93.0776L403.667 93.0737L403.068 92.2727ZM409.818 90.6818L409.926 89.6876L409.926 89.6876L409.818 90.6818ZM411.295 90.9318H412.295V90.151L411.538 89.9617L411.295 90.9318ZM411.295 99.5227L411.008 100.481L412.295 100.867V99.5227H411.295ZM403.386 99.9318L403.867 100.809L403.871 100.807L403.386 99.9318ZM400.75 102.477L399.891 101.965L399.886 101.973L400.75 102.477ZM399.795 126V127H400.795V126H399.795ZM391.114 126V91.0909H389.114V126H391.114ZM390.114 92.0909H399.5V90.0909H390.114V92.0909ZM398.5 91.0909V97.1818H400.5V91.0909H398.5ZM399.5 98.1818H399.864V96.1818H399.5V98.1818ZM400.823 97.4636C401.411 95.461 402.372 94.0283 403.662 93.0776L402.475 91.4679C400.764 92.7292 399.589 94.5693 398.904 96.9L400.823 97.4636ZM403.667 93.0737C404.986 92.0876 406.501 91.5909 408.25 91.5909V89.5909C406.09 89.5909 404.15 90.2154 402.469 91.4718L403.667 93.0737ZM408.25 91.5909C408.694 91.5909 409.18 91.6187 409.711 91.676L409.926 89.6876C409.335 89.6237 408.776 89.5909 408.25 89.5909V91.5909ZM409.711 91.676C410.238 91.733 410.684 91.8096 411.053 91.902L411.538 89.9617C411.059 89.8419 410.52 89.7518 409.926 89.6876L409.711 91.676ZM410.295 90.9318V99.5227H412.295V90.9318H410.295ZM411.583 98.5649C411.054 98.4062 410.365 98.2766 409.54 98.1677L409.278 100.15C410.06 100.254 410.628 100.367 411.008 100.481L411.583 98.5649ZM409.54 98.1677C408.702 98.0571 407.923 98 407.205 98V100C407.819 100 408.51 100.049 409.278 100.15L409.54 98.1677ZM407.205 98C405.63 98 404.187 98.3449 402.902 99.0571L403.871 100.807C404.828 100.276 405.931 100 407.205 100V98ZM402.906 99.0548C401.642 99.7472 400.634 100.722 399.891 101.965L401.609 102.99C402.169 102.051 402.918 101.329 403.867 100.809L402.906 99.0548ZM399.886 101.973C399.15 103.236 398.795 104.672 398.795 106.25H400.795C400.795 104.98 401.078 103.9 401.614 102.981L399.886 101.973ZM398.795 106.25V126H400.795V106.25H398.795ZM399.795 125H390.114V127H399.795V125ZM431.295 126H430.295V127H431.295V126ZM431.295 79.4545V78.4545H430.295V79.4545H431.295ZM441.136 79.4545H442.136V78.4545H441.136V79.4545ZM441.136 117.886H440.136V118.886H441.136V117.886ZM461.091 117.886H462.091V116.886H461.091V117.886ZM461.091 126V127H462.091V126H461.091ZM432.295 126V79.4545H430.295V126H432.295ZM431.295 80.4545H441.136V78.4545H431.295V80.4545ZM440.136 79.4545V117.886H442.136V79.4545H440.136ZM441.136 118.886H461.091V116.886H441.136V118.886ZM460.091 117.886V126H462.091V117.886H460.091ZM461.091 125H431.295V127H461.091V125ZM467.426 126H466.426V127H467.426V126ZM467.426 91.0909V90.0909H466.426V91.0909H467.426ZM477.108 91.0909H478.108V90.0909H477.108V91.0909ZM477.108 126V127H478.108V126H477.108ZM468.585 85.1591L467.894 85.8822L467.9 85.8875L467.906 85.8926L468.585 85.1591ZM468.585 78.25L469.27 78.9785L469.271 78.9782L468.585 78.25ZM475.972 78.25L475.281 78.9731L475.286 78.9784L475.292 78.9836L475.972 78.25ZM475.972 85.1591L476.657 85.8876L476.657 85.8873L475.972 85.1591ZM468.426 126V91.0909H466.426V126H468.426ZM467.426 92.0909H477.108V90.0909H467.426V92.0909ZM476.108 91.0909V126H478.108V91.0909H476.108ZM477.108 125H467.426V127H477.108V125ZM472.29 85.5909C471.095 85.5909 470.105 85.2041 469.265 84.4255L467.906 85.8926C469.126 87.0231 470.605 87.5909 472.29 87.5909V85.5909ZM469.276 84.436C468.449 83.6463 468.062 82.7448 468.062 81.6818H466.062C466.062 83.3158 466.691 84.7325 467.894 85.8822L469.276 84.436ZM468.062 81.6818C468.062 80.6381 468.446 79.7537 469.27 78.9785L467.9 77.5215C466.694 78.6554 466.062 80.0589 466.062 81.6818H468.062ZM469.271 78.9782C470.112 78.1864 471.1 77.7955 472.29 77.7955V75.7955C470.601 75.7955 469.119 76.3742 467.9 77.5218L469.271 78.9782ZM472.29 77.7955C473.479 77.7955 474.457 78.1861 475.281 78.9731L476.662 77.5269C475.456 76.3745 473.979 75.7955 472.29 75.7955V77.7955ZM475.292 78.9836C476.13 79.7602 476.517 80.6433 476.517 81.6818H478.517C478.517 80.0537 477.874 78.6489 476.651 77.5164L475.292 78.9836ZM476.517 81.6818C476.517 82.7397 476.127 83.6397 475.286 84.4309L476.657 85.8873C477.877 84.7391 478.517 83.3209 478.517 81.6818H476.517ZM475.287 84.4306C474.464 85.2045 473.484 85.5909 472.29 85.5909V87.5909C473.974 87.5909 475.449 87.0228 476.657 85.8876L475.287 84.4306ZM494.545 105.818L493.545 105.808V105.818H494.545ZM494.545 126V127H495.545V126H494.545ZM484.864 126H483.864V127H484.864V126ZM484.864 91.0909V90.0909H483.864V91.0909H484.864ZM494.091 91.0909H495.091V90.0909H494.091V91.0909ZM494.091 97.25H493.091V98.25H494.091V97.25ZM494.5 97.25V98.25H495.189L495.435 97.6057L494.5 97.25ZM498.386 92.4318L498.931 93.2703L498.936 93.2671L498.386 92.4318ZM511.341 92.2273L511.848 91.3653L511.341 92.2273ZM515.545 96.7727L514.654 97.2254L514.655 97.2282L515.545 96.7727ZM517.045 126V127H518.045V126H517.045ZM507.364 126H506.364V127H507.364V126ZM507.364 105.5L506.364 105.493V105.5H507.364ZM505.727 100.5L504.989 101.174L504.993 101.179L505.727 100.5ZM497.705 99.5227L497.216 98.6504L497.21 98.6537L497.705 99.5227ZM495.386 101.977L494.5 101.515L494.497 101.52L495.386 101.977ZM493.545 105.818V126H495.545V105.818H493.545ZM494.545 125H484.864V127H494.545V125ZM485.864 126V91.0909H483.864V126H485.864ZM484.864 92.0909H494.091V90.0909H484.864V92.0909ZM493.091 91.0909V97.25H495.091V91.0909H493.091ZM494.091 98.25H494.5V96.25H494.091V98.25ZM495.435 97.6057C496.132 95.7732 497.291 94.3363 498.931 93.2703L497.841 91.5934C495.845 92.891 494.413 94.6662 493.565 96.8943L495.435 97.6057ZM498.936 93.2671C500.562 92.1966 502.567 91.6364 505 91.6364V89.6364C502.251 89.6364 499.847 90.2731 497.836 91.5966L498.936 93.2671ZM505 91.6364C507.275 91.6364 509.208 92.1325 510.834 93.0892L511.848 91.3653C509.868 90.2008 507.574 89.6364 505 89.6364V91.6364ZM510.834 93.0892C512.463 94.0474 513.735 95.4161 514.654 97.2254L516.437 96.32C515.356 94.19 513.825 92.5283 511.848 91.3653L510.834 93.0892ZM514.655 97.2282C515.568 99.0124 516.045 101.182 516.045 103.773H518.045C518.045 100.939 517.523 98.4421 516.436 96.3173L514.655 97.2282ZM516.045 103.773V126H518.045V103.773H516.045ZM517.045 125H507.364V127H517.045V125ZM508.364 126V105.5H506.364V126H508.364ZM508.364 105.507C508.38 103.198 507.788 101.257 506.462 99.8213L504.993 101.179C505.878 102.137 506.378 103.529 506.364 105.493L508.364 105.507ZM506.466 99.8259C505.136 98.3683 503.324 97.6818 501.159 97.6818V99.6818C502.873 99.6818 504.107 100.207 504.989 101.174L506.466 99.8259ZM501.159 97.6818C499.709 97.6818 498.384 97.9952 497.216 98.6504L498.194 100.395C499.025 99.929 500.004 99.6818 501.159 99.6818V97.6818ZM497.21 98.6537C496.046 99.3162 495.142 100.281 494.5 101.515L496.273 102.439C496.751 101.522 497.393 100.851 498.199 100.392L497.21 98.6537ZM494.497 101.52C493.864 102.75 493.562 104.192 493.546 105.808L495.545 105.828C495.559 104.445 495.817 103.326 496.276 102.435L494.497 101.52ZM533.449 115.955L532.449 115.953L532.444 118.62L534.201 116.613L533.449 115.955ZM533.472 104.341V103.341H532.474L532.472 104.339L533.472 104.341ZM534.881 104.341V105.341H535.345L535.645 104.986L534.881 104.341ZM546.062 91.0909V90.0909H545.598L545.298 90.446L546.062 91.0909ZM557.176 91.0909L557.936 91.7413L559.349 90.0909H557.176V91.0909ZM542.153 108.636V109.636H542.614L542.913 109.287L542.153 108.636ZM539.858 108.636V107.636H539.404L539.106 107.978L539.858 108.636ZM524.676 126H523.676V127H524.676V126ZM524.676 79.4545V78.4545H523.676V79.4545H524.676ZM534.358 79.4545H535.358V78.4545H534.358V79.4545ZM534.358 126V127H535.358V126H534.358ZM546.494 126L545.666 126.56L545.963 127H546.494V126ZM536.222 110.795L535.494 110.109L534.945 110.692L535.393 111.355L536.222 110.795ZM542.676 103.955L543.5 103.388L542.799 102.368L541.949 103.268L542.676 103.955ZM557.835 126V127H559.736L558.659 125.433L557.835 126ZM534.449 115.957L534.472 104.343L532.472 104.339L532.449 115.953L534.449 115.957ZM533.472 105.341H534.881V103.341H533.472V105.341ZM535.645 104.986L546.827 91.7359L545.298 90.446L534.116 103.696L535.645 104.986ZM546.062 92.0909H557.176V90.0909H546.062V92.0909ZM556.417 90.4405L541.394 107.986L542.913 109.287L557.936 91.7413L556.417 90.4405ZM542.153 107.636H539.858V109.636H542.153V107.636ZM539.106 107.978L532.697 115.296L534.201 116.613L540.61 109.295L539.106 107.978ZM525.676 126V79.4545H523.676V126H525.676ZM524.676 80.4545H534.358V78.4545H524.676V80.4545ZM533.358 79.4545V126H535.358V79.4545H533.358ZM534.358 125H524.676V127H534.358V125ZM547.323 125.44L537.05 110.236L535.393 111.355L545.666 126.56L547.323 125.44ZM536.949 111.482L543.403 104.641L541.949 103.268L535.494 110.109L536.949 111.482ZM541.852 104.521L557.011 126.567L558.659 125.433L543.5 103.388L541.852 104.521ZM557.835 125H546.494V127H557.835V125ZM299.295 169.841L298.3 169.94L298.39 170.841H299.295V169.841ZM287.273 164.727L287.642 165.657L287.653 165.652L287.273 164.727ZM284.727 166.568L283.927 165.968L283.92 165.978L284.727 166.568ZM283.864 169.25L284.863 169.286L284.864 169.268V169.25H283.864ZM284.386 171.432L283.533 171.952L283.537 171.96L283.542 171.967L284.386 171.432ZM286 173.045L285.445 173.878L285.452 173.882L285.458 173.886L286 173.045ZM288.364 174.205L288.014 175.142L288.021 175.144L288.028 175.147L288.364 174.205ZM291.227 175.023L291.46 174.05L291.453 174.048L291.446 174.047L291.227 175.023ZM295.409 176.023L295.177 176.995L295.184 176.997L295.191 176.999L295.409 176.023ZM301 177.841L300.592 178.754L300.592 178.754L301 177.841ZM305.409 180.636L306.074 179.889L306.074 179.889L305.409 180.636ZM308.295 184.545L307.385 184.959L307.389 184.967L308.295 184.545ZM309.364 189.705L310.364 189.71L310.364 189.697L309.364 189.705ZM307.182 197.114L306.358 196.547L306.357 196.548L307.182 197.114ZM301 201.955L301.39 202.875L301.393 202.874L301 201.955ZM281.477 201.932L281.094 202.855L281.096 202.856L281.477 201.932ZM274.977 196.818L274.15 197.381L274.155 197.387L274.977 196.818ZM272.545 188.386V187.386H271.523L271.546 188.409L272.545 188.386ZM282.068 188.386L283.066 188.319L283.003 187.386H282.068V188.386ZM283.409 192.295L282.61 192.897L282.615 192.904L282.62 192.91L283.409 192.295ZM286.614 194.636L286.244 195.566L286.257 195.571L286.614 194.636ZM295.523 194.682L295.159 193.75L295.155 193.752L295.523 194.682ZM298.409 192.659L299.194 193.279L299.194 193.279L298.409 192.659ZM298.5 187.045L297.738 187.694L297.746 187.703L298.5 187.045ZM295.818 185.227L295.424 186.146L295.429 186.148L295.818 185.227ZM291.523 183.864L291.279 184.834L291.288 184.836L291.523 183.864ZM286.455 182.591L286.698 181.621L286.691 181.619L286.455 182.591ZM277.159 178.114L276.493 178.859L276.493 178.859L277.159 178.114ZM273.773 169.909L274.773 169.913L274.773 169.904L273.773 169.909ZM276.023 162.523L275.214 161.935L275.211 161.939L276.023 162.523ZM300.455 157.591L300.038 158.5L300.04 158.501L300.455 157.591ZM306.5 162.523L305.674 163.087L305.674 163.087L306.5 162.523ZM308.727 169.841V170.841H309.744L309.727 169.825L308.727 169.841ZM300.291 169.742C300.083 167.651 299.173 165.96 297.547 164.763L296.362 166.373C297.494 167.207 298.144 168.364 298.3 169.94L300.291 169.742ZM297.547 164.763C295.942 163.581 293.838 163.045 291.341 163.045V165.045C293.571 165.045 295.209 165.525 296.362 166.373L297.547 164.763ZM291.341 163.045C289.647 163.045 288.153 163.284 286.893 163.802L287.653 165.652C288.605 165.261 289.823 165.045 291.341 165.045V163.045ZM286.904 163.798C285.662 164.291 284.65 165.005 283.927 165.968L285.527 167.168C285.987 166.556 286.671 166.042 287.642 165.657L286.904 163.798ZM283.92 165.978C283.216 166.942 282.864 168.044 282.864 169.25H284.864C284.864 168.456 285.087 167.77 285.535 167.158L283.92 165.978ZM282.864 169.214C282.828 170.213 283.037 171.14 283.533 171.952L285.24 170.911C284.978 170.481 284.839 169.953 284.863 169.286L282.864 169.214ZM283.542 171.967C284.019 172.719 284.661 173.354 285.445 173.878L286.555 172.213C285.976 171.827 285.542 171.387 285.231 170.896L283.542 171.967ZM285.458 173.886C286.21 174.37 287.064 174.787 288.014 175.142L288.713 173.268C287.875 172.955 287.154 172.599 286.542 172.205L285.458 173.886ZM288.028 175.147C288.964 175.48 289.958 175.763 291.009 175.999L291.446 174.047C290.466 173.828 289.551 173.566 288.699 173.262L288.028 175.147ZM290.995 175.995L295.177 176.995L295.642 175.05L291.46 174.05L290.995 175.995ZM295.191 176.999C297.164 177.44 298.963 178.027 300.592 178.754L301.408 176.928C299.643 176.14 297.715 175.514 295.628 175.047L295.191 176.999ZM300.592 178.754C302.206 179.475 303.587 180.353 304.744 181.383L306.074 179.889C304.746 178.708 303.188 177.722 301.408 176.928L300.592 178.754ZM304.744 181.383C305.883 182.398 306.762 183.587 307.385 184.959L309.206 184.132C308.466 182.503 307.42 181.087 306.074 179.889L304.744 181.383ZM307.389 184.967C308.016 186.317 308.349 187.891 308.364 189.712L310.364 189.697C310.348 187.639 309.969 185.774 309.202 184.124L307.389 184.967ZM308.364 189.699C308.349 192.372 307.67 194.641 306.358 196.547L308.006 197.681C309.572 195.405 310.348 192.734 310.364 189.71L308.364 189.699ZM306.357 196.548C305.057 198.443 303.159 199.945 300.607 201.035L301.393 202.874C304.235 201.661 306.458 199.936 308.006 197.679L306.357 196.548ZM300.61 201.034C298.083 202.105 294.988 202.659 291.295 202.659V204.659C295.179 204.659 298.554 204.077 301.39 202.875L300.61 201.034ZM291.295 202.659C287.638 202.659 284.5 202.098 281.859 201.008L281.096 202.856C284.03 204.068 287.438 204.659 291.295 204.659V202.659ZM281.861 201.008C279.248 199.923 277.241 198.334 275.8 196.25L274.155 197.387C275.835 199.817 278.161 201.637 281.094 202.855L281.861 201.008ZM275.804 196.256C274.389 194.174 273.618 191.562 273.545 188.364L271.546 188.409C271.625 191.908 272.475 194.916 274.15 197.38L275.804 196.256ZM272.545 189.386H282.068V187.386H272.545V189.386ZM281.07 188.454C281.187 190.17 281.685 191.669 282.61 192.897L284.208 191.694C283.558 190.831 283.161 189.724 283.066 188.319L281.07 188.454ZM282.62 192.91C283.543 194.094 284.762 194.976 286.244 195.566L286.983 193.707C285.798 193.236 284.881 192.557 284.198 191.681L282.62 192.91ZM286.257 195.571C287.737 196.136 289.384 196.409 291.182 196.409V194.409C289.586 194.409 288.187 194.167 286.971 193.702L286.257 195.571ZM291.182 196.409C292.942 196.409 294.52 196.153 295.89 195.612L295.155 193.752C294.071 194.18 292.754 194.409 291.182 194.409V196.409ZM295.886 195.613C297.259 195.078 298.381 194.309 299.194 193.279L297.624 192.039C297.074 192.737 296.271 193.316 295.159 193.75L295.886 195.613ZM299.194 193.279C300.018 192.235 300.432 191.023 300.432 189.682H298.432C298.432 190.583 298.164 191.356 297.624 192.039L299.194 193.279ZM300.432 189.682C300.432 188.422 300.051 187.302 299.254 186.388L297.746 187.703C298.191 188.213 298.432 188.85 298.432 189.682H300.432ZM299.262 186.397C298.524 185.531 297.483 184.846 296.208 184.306L295.429 186.148C296.517 186.609 297.264 187.136 297.738 187.694L299.262 186.397ZM296.212 184.308C294.979 183.78 293.49 183.309 291.757 182.891L291.288 184.836C292.949 185.236 294.324 185.675 295.424 186.146L296.212 184.308ZM291.766 182.894L286.698 181.621L286.211 183.561L291.279 184.834L291.766 182.894ZM286.691 181.619C282.876 180.691 279.942 179.259 277.825 177.368L276.493 178.859C278.922 181.029 282.184 182.581 286.218 183.563L286.691 181.619ZM277.825 177.368C275.795 175.554 274.759 173.108 274.773 169.913L272.773 169.905C272.757 173.589 273.978 176.613 276.493 178.859L277.825 177.368ZM274.773 169.904C274.759 167.278 275.454 165.026 276.834 163.107L275.211 161.939C273.562 164.231 272.757 166.904 272.773 169.914L274.773 169.904ZM276.832 163.111C278.246 161.164 280.198 159.624 282.723 158.505L281.913 156.677C279.105 157.921 276.86 159.67 275.214 161.935L276.832 163.111ZM282.723 158.505C285.243 157.388 288.132 156.818 291.409 156.818V154.818C287.898 154.818 284.726 155.43 281.913 156.677L282.723 158.505ZM291.409 156.818C294.751 156.818 297.618 157.39 300.038 158.5L300.872 156.682C298.14 155.429 294.977 154.818 291.409 154.818V156.818ZM300.04 158.501C302.484 159.616 304.349 161.148 305.674 163.087L307.326 161.958C305.772 159.685 303.606 157.929 300.87 156.681L300.04 158.501ZM305.674 163.087C306.994 165.017 307.685 167.263 307.727 169.857L309.727 169.825C309.679 166.874 308.885 164.24 307.326 161.958L305.674 163.087ZM308.727 168.841H299.295V170.841H308.727V168.841ZM318.324 215.795L318.504 214.812L318.493 214.81L318.324 215.795ZM315.688 215.091L314.73 214.802L314.468 215.669L315.306 216.015L315.688 215.091ZM317.869 207.864L318.163 206.908L317.202 206.613L316.912 207.575L317.869 207.864ZM320.938 208.432L320.904 209.431L320.905 209.431L320.938 208.432ZM323.324 207.795L322.769 206.963L322.761 206.969L323.324 207.795ZM324.983 205.477L325.915 205.84L325.916 205.836L324.983 205.477ZM325.551 204L326.484 204.359L326.616 204.017L326.495 203.671L325.551 204ZM313.028 168.091V167.091H311.621L312.084 168.42L313.028 168.091ZM323.21 168.091L324.173 167.82L323.967 167.091H323.21V168.091ZM330.438 193.727L329.475 193.999L329.68 194.727H330.438V193.727ZM330.801 193.727V194.727H331.556L331.763 194.001L330.801 193.727ZM338.097 168.091V167.091H337.341L337.135 167.817L338.097 168.091ZM348.347 168.091L349.29 168.422L349.757 167.091H348.347V168.091ZM334.778 206.773L333.835 206.442L333.834 206.445L334.778 206.773ZM332.119 211.682L331.34 211.055L331.333 211.064L332.119 211.682ZM327.915 214.932L327.507 214.019L327.5 214.022L327.915 214.932ZM321.778 215.091C320.604 215.091 319.514 214.997 318.504 214.812L318.144 216.779C319.286 216.988 320.498 217.091 321.778 217.091V215.091ZM318.493 214.81C317.477 214.636 316.676 214.417 316.069 214.167L315.306 216.015C316.093 216.34 317.05 216.592 318.155 216.781L318.493 214.81ZM316.645 215.38L318.827 208.153L316.912 207.575L314.73 214.802L316.645 215.38ZM317.576 208.82C318.773 209.187 319.885 209.397 320.904 209.431L320.971 207.432C320.172 207.406 319.239 207.238 318.163 206.908L317.576 208.82ZM320.905 209.431C322.009 209.467 323.02 209.213 323.887 208.622L322.761 206.969C322.294 207.287 321.715 207.457 320.97 207.432L320.905 209.431ZM323.879 208.628C324.79 208.02 325.447 207.043 325.915 205.84L324.051 205.115C323.671 206.093 323.221 206.662 322.769 206.963L323.879 208.628ZM325.916 205.836L326.484 204.359L324.618 203.641L324.05 205.118L325.916 205.836ZM326.495 203.671L313.973 167.762L312.084 168.42L324.607 204.329L326.495 203.671ZM313.028 169.091H323.21V167.091H313.028V169.091ZM322.248 168.362L329.475 193.999L331.4 193.456L324.173 167.82L322.248 168.362ZM330.438 194.727H330.801V192.727H330.438V194.727ZM331.763 194.001L339.058 168.365L337.135 167.817L329.839 193.454L331.763 194.001ZM338.097 169.091H348.347V167.091H338.097V169.091ZM347.403 167.76L333.835 206.442L335.722 207.104L349.29 168.422L347.403 167.76ZM333.834 206.445C333.216 208.227 332.382 209.76 331.34 211.055L332.899 212.309C334.099 210.816 335.038 209.076 335.723 207.1L333.834 206.445ZM331.333 211.064C330.331 212.341 329.061 213.325 327.507 214.019L328.322 215.845C330.162 215.024 331.696 213.841 332.906 212.299L331.333 211.064ZM327.5 214.022C325.965 214.721 324.068 215.091 321.778 215.091V217.091C324.276 217.091 326.471 216.688 328.329 215.842L327.5 214.022ZM382.347 178.045L382.408 179.044L383.478 178.978L383.338 177.915L382.347 178.045ZM373.483 178.591L372.502 178.787L372.673 179.643L373.544 179.589L373.483 178.591ZM372.506 176.545L371.727 177.173L371.734 177.182L372.506 176.545ZM370.528 175.068L370.102 175.973L370.112 175.977L370.122 175.982L370.528 175.068ZM363.847 175.455L364.363 176.311L364.372 176.305L363.847 175.455ZM363.301 180.068L362.648 180.825L362.648 180.825L363.301 180.068ZM366.733 181.455L366.523 182.432L366.535 182.435L366.733 181.455ZM373.051 182.727L373.252 181.748L373.249 181.747L373.051 182.727ZM380.642 186.091L379.962 186.824L379.962 186.824L380.642 186.091ZM381.119 198.205L380.331 197.589L380.328 197.593L381.119 198.205ZM375.619 202.25L376 203.175L376.003 203.173L375.619 202.25ZM356.551 200.795L355.972 201.61L355.977 201.614L356.551 200.795ZM351.756 192.886L351.703 191.888L350.613 191.945L350.765 193.026L351.756 192.886ZM361.278 192.386L362.258 192.186L362.086 191.343L361.226 191.388L361.278 192.386ZM363.369 195.614L362.812 196.444L362.82 196.449L363.369 195.614ZM371.71 195.727L372.245 196.572L372.248 196.57L371.71 195.727ZM373.301 193.159L374.301 193.174L374.301 193.158L374.301 193.142L373.301 193.159ZM372.188 191L371.567 191.784L371.577 191.792L372.188 191ZM368.824 189.682L369.02 188.701L369.019 188.701L368.824 189.682ZM362.778 188.477L362.582 189.458L362.583 189.458L362.778 188.477ZM355.165 184.932L354.451 185.632L354.454 185.636L355.165 184.932ZM354.506 172.705L353.708 172.101L353.705 172.106L354.506 172.705ZM359.665 168.955L359.298 168.024L359.296 168.025L359.665 168.955ZM377.892 170.432L377.299 171.237L377.301 171.239L377.892 170.432ZM382.285 177.047L373.422 177.593L373.544 179.589L382.408 179.044L382.285 177.047ZM374.464 178.395C374.279 177.473 373.88 176.64 373.277 175.909L371.734 177.182C372.131 177.663 372.384 178.194 372.502 178.787L374.464 178.395ZM373.285 175.918C372.673 175.159 371.88 174.575 370.935 174.154L370.122 175.982C370.813 176.289 371.338 176.69 371.727 177.172L373.285 175.918ZM370.955 174.164C369.988 173.708 368.873 173.5 367.642 173.5V175.5C368.653 175.5 369.462 175.671 370.102 175.973L370.955 174.164ZM367.642 173.5C366.001 173.5 364.543 173.849 363.321 174.604L364.372 176.305C365.211 175.787 366.283 175.5 367.642 175.5V173.5ZM363.33 174.598C362.053 175.368 361.301 176.5 361.301 177.955H363.301C363.301 177.318 363.579 176.784 364.363 176.311L363.33 174.598ZM361.301 177.955C361.301 179.097 361.775 180.072 362.648 180.825L363.955 179.311C363.494 178.913 363.301 178.479 363.301 177.955H361.301ZM362.648 180.825C363.51 181.57 364.859 182.074 366.523 182.432L366.943 180.477C365.365 180.138 364.426 179.718 363.955 179.311L362.648 180.825ZM366.535 182.435L372.854 183.708L373.249 181.747L366.93 180.474L366.535 182.435ZM372.85 183.707C376.152 184.385 378.482 185.452 379.962 186.824L381.322 185.358C379.469 183.639 376.739 182.464 373.252 181.748L372.85 183.707ZM379.962 186.824C381.402 188.159 382.142 189.912 382.142 192.182H384.142C384.142 189.421 383.216 187.114 381.322 185.358L379.962 186.824ZM382.142 192.182C382.142 194.257 381.536 196.046 380.331 197.589L381.908 198.82C383.4 196.909 384.142 194.682 384.142 192.182H382.142ZM380.328 197.593C379.117 199.162 377.434 200.413 375.236 201.327L376.003 203.173C378.472 202.148 380.455 200.701 381.911 198.816L380.328 197.593ZM375.239 201.325C373.064 202.221 370.523 202.682 367.597 202.682V204.682C370.731 204.682 373.539 204.188 376 203.175L375.239 201.325ZM367.597 202.682C363.105 202.682 359.647 201.746 357.126 199.977L355.977 201.614C358.94 203.694 362.846 204.682 367.597 204.682V202.682ZM357.131 199.98C354.629 198.201 353.178 195.81 352.746 192.747L350.765 193.026C351.273 196.629 353.019 199.511 355.972 201.61L357.131 199.98ZM351.808 193.885L361.331 193.385L361.226 191.388L351.703 191.888L351.808 193.885ZM360.299 192.587C360.634 194.23 361.469 195.543 362.812 196.444L363.927 194.783C363.057 194.2 362.498 193.36 362.258 192.186L360.299 192.587ZM362.82 196.449C364.132 197.312 365.755 197.705 367.619 197.705V195.705C366.029 195.705 364.819 195.37 363.919 194.778L362.82 196.449ZM367.619 197.705C369.434 197.705 371.003 197.357 372.245 196.572L371.176 194.882C370.356 195.4 369.198 195.705 367.619 195.705V197.705ZM372.248 196.57C373.516 195.762 374.28 194.622 374.301 193.174L372.301 193.145C372.292 193.787 371.995 194.359 371.173 194.884L372.248 196.57ZM374.301 193.142C374.28 191.944 373.754 190.945 372.798 190.208L371.577 191.792C372.076 192.177 372.292 192.617 372.301 193.176L374.301 193.142ZM372.808 190.216C371.9 189.497 370.599 189.017 369.02 188.701L368.628 190.662C370.079 190.953 371.02 191.351 371.567 191.784L372.808 190.216ZM369.019 188.701L362.974 187.497L362.583 189.458L368.628 190.663L369.019 188.701ZM362.975 187.497C359.674 186.837 357.35 185.717 355.875 184.228L354.454 185.636C356.313 187.511 359.065 188.754 362.582 189.458L362.975 187.497ZM355.878 184.231C354.431 182.757 353.688 180.874 353.688 178.5H351.688C351.688 181.338 352.596 183.743 354.451 185.632L355.878 184.231ZM353.688 178.5C353.688 176.449 354.238 174.733 355.307 173.303L353.705 172.106C352.349 173.918 351.688 176.066 351.688 178.5H353.688ZM355.303 173.308C356.402 171.856 357.962 170.707 360.034 169.884L359.296 168.025C356.943 168.96 355.064 170.311 353.708 172.101L355.303 173.308ZM360.032 169.885C362.117 169.062 364.594 168.636 367.483 168.636V166.636C364.402 166.636 361.667 167.09 359.298 168.024L360.032 169.885ZM367.483 168.636C371.762 168.636 374.997 169.542 377.299 171.237L378.485 169.627C375.726 167.594 372.022 166.636 367.483 166.636V168.636ZM377.301 171.239C379.62 172.936 380.966 175.227 381.355 178.176L383.338 177.915C382.879 174.44 381.255 171.655 378.483 169.625L377.301 171.239ZM407.807 168.091H408.807V167.091H407.807V168.091ZM407.807 175.364V176.364H408.807V175.364H407.807ZM386.784 175.364H385.784V176.364H386.784V175.364ZM386.784 168.091V167.091H385.784V168.091H386.784ZM391.557 159.727V158.727H390.557V159.727H391.557ZM401.239 159.727H402.239V158.727H401.239V159.727ZM401.648 194.364L400.77 194.843L400.776 194.854L401.648 194.364ZM402.784 195.386L402.408 196.313L402.418 196.317L402.784 195.386ZM405.875 195.568L406.039 196.555L406.055 196.552L406.071 196.549L405.875 195.568ZM406.92 195.364L407.899 195.157L407.697 194.201L406.736 194.381L406.92 195.364ZM408.443 202.568L408.741 203.523L409.61 203.251L409.422 202.361L408.443 202.568ZM406.398 203.091L406.179 202.115L406.171 202.117L406.163 202.119L406.398 203.091ZM403.193 203.477L403.157 202.478L403.154 202.478L403.193 203.477ZM397.057 202.545L396.678 203.471L396.681 203.472L397.057 202.545ZM392.989 199.227L393.828 198.684L393.828 198.684L392.989 199.227ZM391.557 193.545L392.557 193.552V193.545H391.557ZM406.807 168.091V175.364H408.807V168.091H406.807ZM407.807 174.364H386.784V176.364H407.807V174.364ZM387.784 175.364V168.091H385.784V175.364H387.784ZM386.784 169.091H407.807V167.091H386.784V169.091ZM391.557 160.727H401.239V158.727H391.557V160.727ZM400.239 159.727V192.273H402.239V159.727H400.239ZM400.239 192.273C400.239 193.248 400.384 194.135 400.77 194.842L402.526 193.885C402.366 193.592 402.239 193.086 402.239 192.273H400.239ZM400.776 194.854C401.152 195.523 401.699 196.025 402.408 196.313L403.16 194.46C402.899 194.354 402.689 194.174 402.519 193.873L400.776 194.854ZM402.418 196.317C403.056 196.568 403.76 196.682 404.511 196.682V194.682C403.959 194.682 403.512 194.598 403.151 194.456L402.418 196.317ZM404.511 196.682C405.022 196.682 405.531 196.639 406.039 196.555L405.711 194.582C405.31 194.649 404.91 194.682 404.511 194.682V196.682ZM406.071 196.549C406.524 196.458 406.868 196.391 407.105 196.347L406.736 194.381C406.488 194.427 406.135 194.496 405.679 194.588L406.071 196.549ZM405.942 195.57L407.465 202.775L409.422 202.361L407.899 195.157L405.942 195.57ZM408.145 201.614C407.699 201.753 407.048 201.92 406.179 202.115L406.616 204.067C407.505 203.868 408.218 203.686 408.741 203.523L408.145 201.614ZM406.163 202.119C405.369 202.31 404.372 202.434 403.157 202.478L403.229 204.477C404.53 204.43 405.669 204.296 406.632 204.063L406.163 202.119ZM403.154 202.478C400.931 202.565 399.032 202.267 397.432 201.619L396.681 203.472C398.597 204.248 400.789 204.572 403.232 204.477L403.154 202.478ZM397.435 201.62C395.871 200.981 394.681 200.003 393.828 198.684L392.149 199.77C393.236 201.452 394.758 202.686 396.678 203.471L397.435 201.62ZM393.828 198.684C392.991 197.388 392.543 195.699 392.557 193.552L390.557 193.539C390.541 195.967 391.047 198.066 392.149 199.77L393.828 198.684ZM392.557 193.545V159.727H390.557V193.545H392.557ZM420.375 201.5L419.879 202.369L419.885 202.372L420.375 201.5ZM414.42 195.273L413.532 195.732L413.533 195.734L414.42 195.273ZM414.42 176.25L413.531 175.793L413.531 175.793L414.42 176.25ZM420.307 169.909L419.795 169.05L419.793 169.051L420.307 169.909ZM435.693 168.75L435.343 169.687L435.351 169.69L435.693 168.75ZM440.92 172.045L440.217 172.756L440.221 172.76L440.92 172.045ZM444.42 177.591L443.484 177.941L443.485 177.943L444.42 177.591ZM445.67 188.023V189.023H446.67V188.023H445.67ZM416.193 188.023H415.193V189.023H416.193V188.023ZM416.193 182.023V181.023H415.193V182.023H416.193ZM436.557 182.023V183.023H437.557V182.023H436.557ZM435.648 178.318L434.776 178.809L434.776 178.809L435.648 178.318ZM433.125 175.795L432.62 176.658L432.627 176.663L432.634 176.667L433.125 175.795ZM425.511 175.886L426.022 176.746L426.026 176.744L425.511 175.886ZM422.875 178.591L423.745 179.085L423.748 179.08L422.875 178.591ZM421.898 182.341L420.898 182.33V182.341H421.898ZM422.852 192.523L421.96 192.974L421.964 192.983L422.852 192.523ZM432.761 196L432.44 195.053L432.44 195.053L432.761 196ZM435.057 194.636L434.367 193.912L434.367 193.912L435.057 194.636ZM436.511 192.409L436.577 191.411L435.839 191.363L435.576 192.054L436.511 192.409ZM445.466 193L446.444 193.207L446.683 192.078L445.532 192.002L445.466 193ZM442.67 198.636L441.919 197.977L441.918 197.977L442.67 198.636ZM437.261 202.364L437.633 203.292L437.636 203.291L437.261 202.364ZM429.648 202.682C426.193 202.682 423.278 201.983 420.865 200.628L419.885 202.372C422.654 203.926 425.921 204.682 429.648 204.682V202.682ZM420.871 200.631C418.465 199.259 416.615 197.326 415.308 194.812L413.533 195.734C415.014 198.583 417.133 200.802 419.879 202.369L420.871 200.631ZM415.309 194.814C414.002 192.286 413.33 189.26 413.33 185.705H411.33C411.33 189.513 412.051 192.866 413.532 195.732L415.309 194.814ZM413.33 185.705C413.33 182.244 414 179.255 415.31 176.707L413.531 175.793C412.053 178.67 411.33 181.983 411.33 185.705H413.33ZM415.31 176.707C416.621 174.155 418.456 172.183 420.821 170.767L419.793 169.051C417.097 170.666 415.007 172.921 413.531 175.793L415.31 176.707ZM420.818 170.768C423.186 169.359 425.989 168.636 429.261 168.636V166.636C425.686 166.636 422.518 167.429 419.795 169.05L420.818 170.768ZM429.261 168.636C431.455 168.636 433.479 168.99 435.343 169.687L436.044 167.813C433.937 167.026 431.674 166.636 429.261 166.636V168.636ZM435.351 169.69C437.218 170.369 438.837 171.39 440.217 172.756L441.624 171.335C440.035 169.762 438.168 168.586 436.035 167.81L435.351 169.69ZM440.221 172.76C441.603 174.114 442.695 175.833 443.484 177.941L445.357 177.24C444.479 174.894 443.238 172.916 441.62 171.331L440.221 172.76ZM443.485 177.943C444.266 180.018 444.67 182.485 444.67 185.364H446.67C446.67 182.303 446.241 179.588 445.356 177.238L443.485 177.943ZM444.67 185.364V188.023H446.67V185.364H444.67ZM445.67 187.023H416.193V189.023H445.67V187.023ZM417.193 188.023V182.023H415.193V188.023H417.193ZM416.193 183.023H436.557V181.023H416.193V183.023ZM437.557 182.023C437.557 180.479 437.22 179.071 436.519 177.827L434.776 178.809C435.288 179.716 435.557 180.778 435.557 182.023H437.557ZM436.519 177.827C435.823 176.592 434.851 175.62 433.616 174.924L432.634 176.667C433.551 177.183 434.26 177.892 434.776 178.809L436.519 177.827ZM433.63 174.933C432.395 174.209 430.981 173.864 429.42 173.864V175.864C430.678 175.864 431.734 176.139 432.62 176.658L433.63 174.933ZM429.42 173.864C427.79 173.864 426.305 174.244 424.997 175.029L426.026 176.744C426.99 176.165 428.112 175.864 429.42 175.864V173.864ZM425 175.027C423.728 175.783 422.725 176.812 422.002 178.102L423.748 179.08C424.298 178.097 425.052 177.323 426.022 176.746L425 175.027ZM422.005 178.097C421.28 179.376 420.915 180.794 420.898 182.33L422.898 182.352C422.911 181.13 423.198 180.048 423.745 179.085L422.005 178.097ZM420.898 182.341V188.045H422.898V182.341H420.898ZM420.898 188.045C420.898 189.895 421.239 191.549 421.96 192.974L423.745 192.071C423.193 190.982 422.898 189.651 422.898 188.045H420.898ZM421.964 192.983C422.7 194.403 423.749 195.517 425.103 196.298L426.102 194.566C425.092 193.983 424.307 193.157 423.74 192.063L421.964 192.983ZM425.103 196.298C426.463 197.083 428.043 197.455 429.807 197.455V195.455C428.328 195.455 427.106 195.145 426.102 194.566L425.103 196.298ZM429.807 197.455C430.977 197.455 432.072 197.29 433.082 196.947L432.44 195.053C431.663 195.316 430.788 195.455 429.807 195.455V197.455ZM433.082 196.947C434.104 196.601 434.997 196.074 435.746 195.361L434.367 193.912C433.844 194.411 433.207 194.793 432.44 195.053L433.082 196.947ZM435.746 195.361C436.499 194.644 437.064 193.773 437.446 192.764L435.576 192.054C435.292 192.803 434.888 193.416 434.367 193.912L435.746 195.361ZM436.446 193.407L445.4 193.998L445.532 192.002L436.577 191.411L436.446 193.407ZM444.488 192.793C444.067 194.782 443.211 196.504 441.919 197.977L443.422 199.296C444.948 197.557 445.955 195.521 446.444 193.207L444.488 192.793ZM441.918 197.977C440.64 199.436 438.972 200.594 436.887 201.436L437.636 203.291C439.974 202.346 441.913 201.018 443.423 199.295L441.918 197.977ZM436.89 201.435C434.834 202.258 432.426 202.682 429.648 202.682V204.682C432.627 204.682 435.295 204.227 437.633 203.292L436.89 201.435ZM451.989 203H450.989V204H451.989V203ZM451.989 168.091V167.091H450.989V168.091H451.989ZM461.216 168.091H462.216V167.091H461.216V168.091ZM461.216 174.25H460.216V175.25H461.216V174.25ZM461.625 174.25V175.25H462.331L462.567 174.585L461.625 174.25ZM465.261 169.409L464.69 168.588L464.69 168.588L465.261 169.409ZM477.466 169.432L476.886 170.247L476.891 170.25L477.466 169.432ZM480.83 174.25L479.866 174.516L480.068 175.25H480.83V174.25ZM481.193 174.25V175.25H481.899L482.135 174.585L481.193 174.25ZM485.057 169.455L485.597 170.296L485.599 170.295L485.057 169.455ZM499.648 170.75L498.933 171.449L498.938 171.454L499.648 170.75ZM502.716 203V204H503.716V203H502.716ZM493.057 203H492.057V204H493.057V203ZM491.511 177.068L490.826 177.796L490.826 177.796L491.511 177.068ZM483.534 177.295L484.281 177.96L484.285 177.955L483.534 177.295ZM482.057 203V204H483.057V203H482.057ZM472.67 203H471.67V204H472.67V203ZM471.193 177.136L470.47 177.827L470.475 177.833L471.193 177.136ZM464.443 176.432L464.973 177.28L464.977 177.277L464.443 176.432ZM462.42 178.682L463.306 179.146L463.309 179.14L462.42 178.682ZM461.67 203V204H462.67V203H461.67ZM452.989 203V168.091H450.989V203H452.989ZM451.989 169.091H461.216V167.091H451.989V169.091ZM460.216 168.091V174.25H462.216V168.091H460.216ZM461.216 175.25H461.625V173.25H461.216V175.25ZM462.567 174.585C463.228 172.726 464.316 171.286 465.833 170.23L464.69 168.588C462.813 169.896 461.476 171.683 460.683 173.915L462.567 174.585ZM465.833 170.23C467.339 169.181 469.163 168.636 471.352 168.636V166.636C468.815 166.636 466.578 167.274 464.69 168.588L465.833 170.23ZM471.352 168.636C473.573 168.636 475.4 169.189 476.886 170.247L478.046 168.617C476.169 167.281 473.92 166.636 471.352 166.636V168.636ZM476.891 170.25C478.378 171.295 479.365 172.703 479.866 174.516L481.793 173.984C481.173 171.736 479.917 169.932 478.041 168.614L476.891 170.25ZM480.83 175.25H481.193V173.25H480.83V175.25ZM482.135 174.585C482.77 172.803 483.911 171.379 485.597 170.296L484.516 168.613C482.475 169.924 481.041 171.697 480.251 173.915L482.135 174.585ZM485.599 170.295C487.294 169.201 489.319 168.636 491.716 168.636V166.636C488.992 166.636 486.578 167.283 484.515 168.614L485.599 170.295ZM491.716 168.636C494.74 168.636 497.114 169.59 498.933 171.449L500.363 170.051C498.12 167.758 495.207 166.636 491.716 166.636V168.636ZM498.938 171.454C500.746 173.276 501.716 175.915 501.716 179.523H503.716C503.716 175.555 502.64 172.345 500.357 170.046L498.938 171.454ZM501.716 179.523V203H503.716V179.523H501.716ZM502.716 202H493.057V204H502.716V202ZM494.057 203V181.432H492.057V203H494.057ZM494.057 181.432C494.057 179.322 493.494 177.561 492.197 176.34L490.826 177.796C491.59 178.515 492.057 179.663 492.057 181.432H494.057ZM492.197 176.34C490.963 175.179 489.422 174.614 487.648 174.614V176.614C488.964 176.614 489.999 177.018 490.826 177.796L492.197 176.34ZM487.648 174.614C485.659 174.614 483.992 175.259 482.783 176.636L484.285 177.955C485.046 177.089 486.122 176.614 487.648 176.614V174.614ZM482.787 176.63C481.604 177.959 481.057 179.677 481.057 181.682H483.057C483.057 180.051 483.494 178.844 484.281 177.96L482.787 176.63ZM481.057 181.682V203H483.057V181.682H481.057ZM482.057 202H472.67V204H482.057V202ZM473.67 203V181.227H471.67V203H473.67ZM473.67 181.227C473.67 179.313 473.114 177.68 471.911 176.44L470.475 177.833C471.242 178.623 471.67 179.717 471.67 181.227H473.67ZM471.916 176.446C470.732 175.206 469.176 174.614 467.352 174.614V176.614C468.71 176.614 469.715 177.037 470.47 177.827L471.916 176.446ZM467.352 174.614C466.098 174.614 464.941 174.934 463.909 175.586L464.977 177.277C465.672 176.838 466.455 176.614 467.352 176.614V174.614ZM463.913 175.584C462.899 176.218 462.106 177.109 461.532 178.224L463.309 179.14C463.735 178.315 464.291 177.706 464.973 177.28L463.913 175.584ZM461.535 178.218C460.946 179.341 460.67 180.627 460.67 182.045H462.67C462.67 180.888 462.895 179.932 463.306 179.146L461.535 178.218ZM460.67 182.045V203H462.67V182.045H460.67ZM461.67 202H451.989V204H461.67V202ZM539.409 178.045L539.471 179.044L540.541 178.978L540.4 177.915L539.409 178.045ZM530.545 178.591L529.565 178.787L529.736 179.643L530.607 179.589L530.545 178.591ZM529.568 176.545L528.789 177.173L528.797 177.182L529.568 176.545ZM527.591 175.068L527.164 175.973L527.174 175.977L527.185 175.982L527.591 175.068ZM520.909 175.455L521.425 176.311L521.435 176.305L520.909 175.455ZM520.364 180.068L519.71 180.825L519.71 180.825L520.364 180.068ZM523.795 181.455L523.585 182.432L523.598 182.435L523.795 181.455ZM530.114 182.727L530.315 181.748L530.311 181.747L530.114 182.727ZM537.705 186.091L537.025 186.824L537.025 186.824L537.705 186.091ZM538.182 198.205L537.394 197.589L537.39 197.593L538.182 198.205ZM532.682 202.25L533.063 203.175L533.066 203.173L532.682 202.25ZM513.614 200.795L513.034 201.61L513.039 201.614L513.614 200.795ZM508.818 192.886L508.766 191.888L507.676 191.945L507.828 193.026L508.818 192.886ZM518.341 192.386L519.321 192.186L519.148 191.343L518.288 191.388L518.341 192.386ZM520.432 195.614L519.874 196.444L519.882 196.449L520.432 195.614ZM528.773 195.727L529.307 196.572L529.31 196.57L528.773 195.727ZM530.364 193.159L531.364 193.174L531.364 193.158L531.363 193.142L530.364 193.159ZM529.25 191L528.629 191.784L528.639 191.792L529.25 191ZM525.886 189.682L526.082 188.701L526.082 188.701L525.886 189.682ZM519.841 188.477L519.645 189.458L519.646 189.458L519.841 188.477ZM512.227 184.932L511.514 185.632L511.517 185.636L512.227 184.932ZM511.568 172.705L510.771 172.101L510.767 172.106L511.568 172.705ZM516.727 168.955L516.36 168.024L516.358 168.025L516.727 168.955ZM534.955 170.432L534.362 171.237L534.364 171.239L534.955 170.432ZM539.348 177.047L530.484 177.593L530.607 179.589L539.471 179.044L539.348 177.047ZM531.526 178.395C531.342 177.473 530.943 176.64 530.34 175.909L528.797 177.182C529.194 177.663 529.446 178.194 529.565 178.787L531.526 178.395ZM530.347 175.918C529.736 175.159 528.943 174.575 527.997 174.154L527.185 175.982C527.876 176.289 528.401 176.69 528.789 177.172L530.347 175.918ZM528.018 174.164C527.051 173.708 525.936 173.5 524.705 173.5V175.5C525.716 175.5 526.525 175.671 527.164 175.973L528.018 174.164ZM524.705 173.5C523.063 173.5 521.606 173.849 520.384 174.604L521.435 176.305C522.273 175.787 523.346 175.5 524.705 175.5V173.5ZM520.393 174.598C519.116 175.368 518.364 176.5 518.364 177.955H520.364C520.364 177.318 520.642 176.784 521.425 176.311L520.393 174.598ZM518.364 177.955C518.364 179.097 518.838 180.072 519.71 180.825L521.017 179.311C520.556 178.913 520.364 178.479 520.364 177.955H518.364ZM519.71 180.825C520.573 181.57 521.921 182.074 523.585 182.432L524.006 180.477C522.427 180.138 521.488 179.718 521.017 179.311L519.71 180.825ZM523.598 182.435L529.916 183.708L530.311 181.747L523.993 180.474L523.598 182.435ZM529.912 183.707C533.214 184.385 535.545 185.452 537.025 186.824L538.384 185.358C536.531 183.639 533.801 182.464 530.315 181.748L529.912 183.707ZM537.025 186.824C538.464 188.159 539.205 189.912 539.205 192.182H541.205C541.205 189.421 540.278 187.114 538.384 185.358L537.025 186.824ZM539.205 192.182C539.205 194.257 538.598 196.046 537.394 197.589L538.97 198.82C540.462 196.909 541.205 194.682 541.205 192.182H539.205ZM537.39 197.593C536.179 199.162 534.496 200.413 532.298 201.327L533.066 203.173C535.534 202.148 537.518 200.701 538.973 198.816L537.39 197.593ZM532.301 201.325C530.126 202.221 527.585 202.682 524.659 202.682V204.682C527.793 204.682 530.601 204.188 533.063 203.175L532.301 201.325ZM524.659 202.682C520.168 202.682 516.709 201.746 514.188 199.977L513.039 201.614C516.003 203.694 519.908 204.682 524.659 204.682V202.682ZM514.193 199.98C511.691 198.201 510.24 195.81 509.808 192.747L507.828 193.026C508.336 196.629 510.081 199.511 513.034 201.61L514.193 199.98ZM508.871 193.885L518.393 193.385L518.288 191.388L508.766 191.888L508.871 193.885ZM517.361 192.587C517.697 194.23 518.532 195.543 519.874 196.444L520.989 194.783C520.12 194.2 519.561 193.36 519.321 192.186L517.361 192.587ZM519.882 196.449C521.195 197.312 522.818 197.705 524.682 197.705V195.705C523.091 195.705 521.881 195.37 520.981 194.778L519.882 196.449ZM524.682 197.705C526.497 197.705 528.066 197.357 529.307 196.572L528.238 194.882C527.419 195.4 526.261 195.705 524.682 195.705V197.705ZM529.31 196.57C530.579 195.762 531.343 194.622 531.364 193.174L529.364 193.145C529.354 193.787 529.058 194.359 528.235 194.884L529.31 196.57ZM531.363 193.142C531.343 191.944 530.816 190.945 529.861 190.208L528.639 191.792C529.138 192.177 529.354 192.617 529.364 193.176L531.363 193.142ZM529.871 190.216C528.963 189.497 527.662 189.017 526.082 188.701L525.69 190.662C527.141 190.953 528.082 191.351 528.629 191.784L529.871 190.216ZM526.082 188.701L520.036 187.497L519.646 189.458L525.691 190.663L526.082 188.701ZM520.037 187.497C516.737 186.837 514.413 185.717 512.938 184.228L511.517 185.636C513.375 187.511 516.127 188.754 519.645 189.458L520.037 187.497ZM512.941 184.231C511.493 182.757 510.75 180.874 510.75 178.5H508.75C508.75 181.338 509.658 183.743 511.514 185.632L512.941 184.231ZM510.75 178.5C510.75 176.449 511.3 174.733 512.369 173.303L510.767 172.106C509.412 173.918 508.75 176.066 508.75 178.5H510.75ZM512.365 173.308C513.465 171.856 515.025 170.707 517.096 169.884L516.358 168.025C514.006 168.96 512.126 170.311 510.771 172.101L512.365 173.308ZM517.094 169.885C519.18 169.062 521.656 168.636 524.545 168.636V166.636C521.465 166.636 518.729 167.09 516.36 168.024L517.094 169.885ZM524.545 168.636C528.825 168.636 532.06 169.542 534.362 171.237L535.548 169.627C532.788 167.594 529.084 166.636 524.545 166.636V168.636ZM534.364 171.239C536.682 172.936 538.028 175.227 538.418 178.176L540.4 177.915C539.942 174.44 538.318 171.655 535.545 169.625L534.364 171.239Z" fill="black" mask="url(#path-1-outside-1_4_16)"/>
<path d="M135.8 18.0868C128.139 19.4851 121.633 23.5588 117.376 29.7002C113.181 35.7803 111.6 43.0767 112.938 50.3731C114.215 57.0007 109.108 60.9529 104 61.0743C99.9873 61.135 96.034 58.8852 95.0616 53.6565C92.8112 41.6177 95.3657 29.4568 102.358 19.3637C102.845 18.6342 103.392 17.9047 104 17.2358C110.931 8.23702 121.025 2.21758 132.577 0.150396C137.503 -0.76179 142.245 2.58234 143.157 7.50749C144.008 12.4933 140.726 17.2358 135.8 18.0868Z" fill="#7BCC29"/>
<path d="M135.8 18.0868C128.139 19.4851 121.633 23.5588 117.376 29.7002C113.181 35.7803 111.6 43.0767 112.938 50.3731C114.215 57.0007 109.108 60.9529 104 61.0743V17.2358C110.931 8.23702 121.025 2.21758 132.577 0.150396C137.503 -0.76179 142.245 2.58234 143.157 7.50749C144.008 12.4933 140.726 17.2358 135.8 18.0868Z" fill="#6EB825"/>
<path d="M181.525 154.347C166.811 140.484 158.723 123.338 158.723 106.008V100.232C158.723 70.9859 137.138 45.9347 109.594 43.1987C107.709 43.016 105.885 42.8946 104 42.8946C90.5018 42.8946 77.3079 47.9412 67.2749 57.0619C55.8447 67.3984 49.2773 82.1738 49.2773 97.6176V106.008C49.2773 123.337 41.1902 140.484 26.476 154.347C8.96451 170.886 0.938597 194.112 4.52609 218.13C11.2144 263.185 59.6132 292.796 104 274.495C148.691 292.918 196.847 262.821 203.474 218.13C207.061 194.112 199.035 170.886 181.525 154.347Z" fill="#FFDE33"/>
<path d="M203.474 218.129C196.846 262.82 148.69 292.918 104 274.494V42.8946C105.885 42.8946 107.709 43.016 109.593 43.1987C137.137 45.9347 158.723 70.9859 158.723 100.232V106.008C158.723 123.337 166.81 140.484 181.524 154.347C199.035 170.886 207.061 194.112 203.474 218.129Z" fill="#FFBC33"/>
<path d="M76.6473 243.545C72.5649 243.545 68.5421 242.815 64.3443 241.31C52.0084 236.904 42.4605 225.45 40.5924 212.805C38.1282 196.3 46.3641 185.732 51.4944 180.901C55.1606 177.443 60.9383 177.62 64.3853 181.287C67.8415 184.953 67.666 190.725 63.9992 194.178C60.9022 197.097 57.4586 202.23 58.6343 210.126C59.5334 216.207 64.4061 221.964 70.4862 224.134C72.6863 224.92 74.6993 225.303 76.6467 225.303C81.6851 225.303 85.767 229.386 85.767 234.424C85.7675 239.462 81.6856 243.545 76.6473 243.545Z" fill="#F9BC35"/>
</svg>
