<svg width="280" height="280" viewBox="0 0 280 280" fill="none" xmlns="http://www.w3.org/2000/svg">
<g clip-path="url(#clip0_4_9)">
<path d="M171.8 18.0868C164.139 19.4851 157.633 23.5588 153.376 29.7002C149.181 35.7803 147.6 43.0767 148.938 50.3731C150.215 57.0007 145.108 60.9529 140 61.0743C135.987 61.135 132.034 58.8852 131.062 53.6565C128.811 41.6177 131.366 29.4568 138.358 19.3637C138.845 18.6342 139.392 17.9047 140 17.2358C146.931 8.23702 157.025 2.21758 168.577 0.150396C173.503 -0.76179 178.245 2.58234 179.157 7.50749C180.008 12.4933 176.726 17.2358 171.8 18.0868Z" fill="#7BCC29"/>
<path d="M171.8 18.0868C164.139 19.4851 157.633 23.5588 153.376 29.7002C149.181 35.7803 147.6 43.0767 148.938 50.3731C150.215 57.0007 145.108 60.9529 140 61.0743V17.2358C146.931 8.23702 157.025 2.21758 168.577 0.150396C173.503 -0.76179 178.245 2.58234 179.157 7.50749C180.008 12.4933 176.726 17.2358 171.8 18.0868Z" fill="#6EB825"/>
<path d="M217.525 154.347C202.811 140.484 194.723 123.338 194.723 106.008V100.232C194.723 70.9859 173.138 45.9347 145.594 43.1987C143.709 43.016 141.885 42.8946 140 42.8946C126.502 42.8946 113.308 47.9412 103.275 57.0619C91.8447 67.3984 85.2773 82.1738 85.2773 97.6176V106.008C85.2773 123.337 77.1902 140.484 62.476 154.347C44.9645 170.886 36.9386 194.112 40.5261 218.13C47.2144 263.185 95.6132 292.796 140 274.495C184.691 292.918 232.847 262.821 239.474 218.13C243.061 194.112 235.035 170.886 217.525 154.347Z" fill="#FFDE33"/>
<path d="M239.474 218.129C232.846 262.82 184.69 292.918 140 274.494V42.8946C141.885 42.8946 143.709 43.016 145.593 43.1987C173.137 45.9347 194.723 70.9859 194.723 100.232V106.008C194.723 123.337 202.81 140.484 217.524 154.347C235.035 170.886 243.061 194.112 239.474 218.129Z" fill="#FFBC33"/>
<path d="M112.647 243.545C108.565 243.545 104.542 242.815 100.344 241.31C88.0084 236.904 78.4605 225.45 76.5924 212.805C74.1282 196.3 82.3641 185.732 87.4944 180.901C91.1606 177.443 96.9383 177.62 100.385 181.287C103.842 184.953 103.666 190.725 99.9992 194.178C96.9022 197.097 93.4586 202.23 94.6343 210.126C95.5334 216.207 100.406 221.964 106.486 224.134C108.686 224.92 110.699 225.303 112.647 225.303C117.685 225.303 121.767 229.386 121.767 234.424C121.767 239.462 117.686 243.545 112.647 243.545Z" fill="#F9BC35"/>
</g>
<defs>
<clipPath id="clip0_4_9">
<rect width="280" height="280" fill="white"/>
</clipPath>
</defs>
</svg>
